<svg xmlns="http://www.w3.org/2000/svg" width="1112.527" height="752.92" viewBox="0 0 1112.527 752.92">
  <g id="_404-element" data-name="404-element" transform="translate(-403.737 -226.08)">
    <g id="Group_230" data-name="Group 230">
      <g id="Group_173" data-name="Group 173" transform="translate(1257.297 664.907)">
        <path id="Path_139" data-name="Path 139" d="M591.087,347a29.119,29.119,0,0,1-28.766,24.567L479.8,371.53l-72.3-.034h-2.17l-15.479-.005h-2l-14.772-.007-2.526,0-20.583-.008-3.628,0-16.787-.008H327.05l-2.057,0-28.932-.014-5.052,0-22.349-.01h-1.273l-3.492,0-34.462-.017a30.067,30.067,0,0,1-26.5-15.876c-2.232-4.178-4.638-9.071-6.971-14.538a162.177,162.177,0,0,1-9.614-30.115,125.113,125.113,0,0,1-2.769-28.161q.049-2.634.231-5.3.159-2.308.419-4.631a100.782,100.782,0,0,1,2.851-15.055,98.26,98.26,0,0,1,6.988-18.339,106.662,106.662,0,0,1,14.255-21.411A126.482,126.482,0,0,1,219.1,206.82c71.314-65.591,140.491-38,150.375-38,47.646,0,36.134-30.075,88.893-34.676,111.583-9.732,94.987,93.056,94.985,93.061s-1.648,5.653-2.157,7.757q-1.029,4.241-1.594,8.042c-.029.193-.058.387-.085.58q-.159,1.1-.276,2.17a56.51,56.51,0,0,0-.021,13.615,41.513,41.513,0,0,0,7.2,18.736,69.642,69.642,0,0,0,8.077,9.509q1.232,1.245,2.5,2.465c1.089,1.053,2.189,2.1,3.29,3.142,1.468,1.395,2.939,2.793,4.381,4.222q.465.457.924.923.791.8,1.564,1.609a69.519,69.519,0,0,1,5.987,7.07c.4.546.791,1.1,1.172,1.667q.67,1,1.3,2.04a44.008,44.008,0,0,1,3.478,7.137C591.939,325.435,593.033,334.73,591.087,347Z" transform="translate(-703.861 -400.993)" fill="#ebf3fa"/>
        <path id="Path_140" data-name="Path 140" d="M390.632,873.718,360.781,891.47,237.893,873.034,183.709,847.1q.049-2.634.231-5.3.159-2.308.419-4.631a100.781,100.781,0,0,1,2.851-15.055,98.257,98.257,0,0,1,6.988-18.339s36.505-15.156,43.694-10.6,27.727,32.279,36.969,30.91,16.088-13.569,28.411,4,19.169,23.828,30.465,17.1,17.115-16.309,26.7-10.49S390.632,873.718,390.632,873.718Z" transform="translate(-703.994 -965.365)" fill="#80b4ff" opacity="0.2"/>
        <path id="Path_141" data-name="Path 141" d="M1878.319,686.914c-27.1,9.1-113.189,37.611-133.484,39.334-24.175,2.054-27.569-17.947-27.569-17.947s27.042-39.023,30.465-38.338,12.763,16.016,16.357,13.449,18.642-54.766,24.388-55.313c5.391-.513,13.283,11.88,15.52,9.826,1.244-1.142,6.853-12.864,12.638-23.044,4.616-8.128,9.346-15.274,12.052-15.262s6.42,5.9,10.326,13.357v0c6.591,12.59,13.756,29.666,17.728,30.6,1.96.459,4.255-.253,6.689-1.27-.029.193-.058.387-.085.58q-.159,1.1-.276,2.17a56.507,56.507,0,0,0-.021,13.615,41.51,41.51,0,0,0,7.2,18.736A69.63,69.63,0,0,0,1878.319,686.914Z" transform="translate(-2017.691 -800.291)" fill="#80b4ff" opacity="0.4"/>
        <path id="Path_142" data-name="Path 142" d="M1869.68,1135.582s9.755-17.659,11.3-14.835,5.9,4.228,7.958,1.215,27.012-30.052,27.626-23.335-9.656,23.424-5.548,24.184,26.7-21.831,34.657-17.21,16.943-3.851,25.415-3.594,8.219,19.794,8.219,19.794l-68.548,21.024-32.346,1.54-15.4-1.8Z" transform="translate(-2142.536 -1226.843)" fill="#80b4ff" opacity="0.4"/>
        <path id="Path_143" data-name="Path 143" d="M2145.879,1157.3s-111.407,23.217-123.032,22.578c0,0,8.221-8.167,18.49-8.51s14.719-10.036,26.7-11.18,19.169,1.424,24.133-1.143,10.611-15.062,22.25-14.719c9.983.294,13.8.084,17.595-2.143a79.639,79.639,0,0,0,10.575,11.974C2143.678,1155.212,2144.778,1156.256,2145.879,1157.3Z" transform="translate(-2279.462 -1265.071)" fill="#80b4ff"/>
        <path id="Path_144" data-name="Path 144" d="M349.436,1038.492l-164.114-28.007a.072.072,0,0,0,0-.012q.159-2.308.419-4.632a100.782,100.782,0,0,1,2.851-15.055s17.5-3.524,25.974,0,7.7,9.172,14.377,9.942,12.727.127,17.747,4.121a30.611,30.611,0,0,0,20.2,6.389c7.645-.457,23.961-2.281,30.352,2.853s19.054,16.316,30.008,16.145,17.028,2.744,18.827,5.306C347.816,1038.025,349.344,1038.468,349.436,1038.492Z" transform="translate(-705.375 -1134.036)" fill="#afcdfb"/>
        <path id="Path_145" data-name="Path 145" d="M592.008,1170.1a77.973,77.973,0,0,1-.929,9.136,29.119,29.119,0,0,1-28.766,24.567l-82.517-.038-72.3-.034h-2.17l-15.479-.005h-2l-14.772-.007-2.526,0-20.583-.009-3.628,0-16.787-.008h-2.507l-2.057,0-28.932-.014-5.052,0-23.622-.01h-3.492l-34.462-.017a30.067,30.067,0,0,1-26.5-15.876,171.183,171.183,0,0,1-16.585-44.652c-.768-3.661-1.4-7.418-1.876-11.255a117.966,117.966,0,0,1-.816-19.434q.159-3.677.573-7.4c16.159-.219,58.837,1.036,109.632,17.18,64.91,20.633,124.783,33.892,168.43,23.107,36.305-8.969,81.394-20.075,107.989-19.862,1.468,1.4,2.939,2.793,4.381,4.222q.465.457.924.923.791.8,1.564,1.609a69.479,69.479,0,0,1,5.987,7.07c.4.546.791,1.1,1.172,1.667q.67,1,1.3,2.04a44,44,0,0,1,3.478,7.137A49.9,49.9,0,0,1,592.008,1170.1Z" transform="translate(-703.853 -1233.225)" fill="#bfe2a8"/>
        <path id="Path_146" data-name="Path 146" d="M1536.994,549.809A17.677,17.677,0,0,1,1554,541.6s17.41-15.392,35.975-2.052c0,0,19.734-3.305,34.35,2.862,9.744,4.112,12.963,8.425,12.963,8.425Z" transform="translate(-1863.264 -744.172)" fill="#f8fcff" opacity="0.8"/>
        <path id="Path_147" data-name="Path 147" d="M1070.649,727.247s4.248-6.5,14.405-5.774c0,0,14.746-10.827,30.472-1.443,0,0,16.716-2.325,29.1,2.013,8.254,2.892,10.98,5.926,10.98,5.926Z" transform="translate(-1463.777 -900.16)" fill="#f8fcff" opacity="0.8"/>
        <path id="Path_148" data-name="Path 148" d="M703.075,521.42s3.025-6.5,10.26-5.774c0,0,10.5-10.827,21.7-1.444,0,0,11.906-2.325,20.724,2.013,5.879,2.892,7.82,5.926,7.82,5.926Z" transform="translate(-1148.901 -723.842)" fill="#f8fcff" opacity="0.8"/>
        <path id="Path_149" data-name="Path 149" d="M517.053,1247.315s-63.707-7.236-89.494-16.6-27.662-6.608-21.419-1.65,42.243,16.672,27.324,18-41.769-2.583-51.888,7.772-26.015,19.663,0,21.672,101.985-12.262,101.985-12.262Z" transform="translate(-861.369 -1335.6)" fill="#daed8e"/>
        <path id="Path_150" data-name="Path 150" d="M1787.172,1305.165s9.242,22.25,10.269,22.935,4.8,1.552,5.062,2.579,6.161,14.633,6.161,14.633l-22.591,4.364-17.97-10.525Z" transform="translate(-2061.239 -1404.685)" fill="#a36f4b"/>
        <path id="Path_151" data-name="Path 151" d="M761.507,1343.23l-68.164-.031-14.353-.007-72.3-.034h-2.17l-15.479-.005h-2l-14.772-.007-2.526,0-20.583-.009-3.628,0-16.787-.009h-2.507l-2.057,0-28.932-.014-5.053,0-23.622-.01-3.492,0-34.462-.017a30.075,30.075,0,0,1-12.544-2.744c18.435-8.585,74.577-34.3,119.112-50.083,54.084-19.169,84.892-29.438,93.792-17.115s-23.619,38.338-5.819,39.023,60.588-4.792,76.677-1.711c16.056,3.074,14.384,9.218,18.8,9.583l.026,0c4.45.342,38.681-2.054,42.788,4.108S761.507,1343.23,761.507,1343.23Z" transform="translate(-903.047 -1372.656)" fill="#d8a987"/>
        <path id="Path_152" data-name="Path 152" d="M2432.741,612.976v0s-5.932-4.63-7.3-6.025-3.081,1.965-4.108,3.4-1.142-3.035-1.142-4.4-9.829,8.932-9.829,8.932l0,0c4.616-8.128,9.346-15.274,12.053-15.262S2428.835,605.515,2432.741,612.976Z" transform="translate(-2611.42 -800.291)" fill="#f8fcff" opacity="0.8"/>
        <path id="Path_153" data-name="Path 153" d="M2152.232,801.792s7.015-18.576,10.666-18.005,8.642,9,8.642,9-5.076-4.347-6.017-2.892-1.113,4.329-2.739,2.892-2.653-1.644-3.509,0S2152.232,801.792,2152.232,801.792Z" transform="translate(-2390.298 -958.044)" fill="#f8fcff"/>
        <path id="Path_154" data-name="Path 154" d="M359.635,1522.246c-4.45,5.477-31.834,7.188-30.979,11.125.686,3.154,13.345,5.429,14.127,9.2H341.51l-3.492,0-34.462-.017a30.068,30.068,0,0,1-26.5-15.876c-2.232-4.178-4.638-9.071-6.971-14.538,0,0,11.678-11.763,40.432-7.161s32.74-7.332,46.211-3.613,16.944.551,21.908,3.613-18.827,8.2-21.394,10.593S364.085,1516.769,359.635,1522.246Z" transform="translate(-777.984 -1572.131)" fill="#509b67"/>
        <g id="Group_177" data-name="Group 177" transform="translate(-500.393 -83.471)">
          <path id="Path_155" data-name="Path 155" d="M358.4,1434.643s-5.875-14.066-.319-17.129-.624,12.076,1.751,17.693C361.007,1437.989,358.4,1434.643,358.4,1434.643Z" transform="translate(-350.926 -1417.109)" fill="#509b67"/>
          <path id="Path_156" data-name="Path 156" d="M327.221,1486.092s-7.242-8.889-3.866-12.347,2.11,8.894,5.023,12.437C329.82,1487.936,327.221,1486.092,327.221,1486.092Z" transform="translate(-322.458 -1465.107)" fill="#509b67"/>
          <path id="Path_157" data-name="Path 157" d="M392.729,1468.37s-.685-13.961,5.129-14.916-4.357,10.257-4.058,15.841C393.948,1472.061,392.729,1468.37,392.729,1468.37Z" transform="translate(-382.633 -1448.195)" fill="#509b67"/>
        </g>
        <g id="Group_178" data-name="Group 178" transform="translate(-474.964 -58.396)">
          <path id="Path_158" data-name="Path 158" d="M533.937,1601.2s-.8-8.423,2.258-9.148-.673,8.772-.673,8.772Z" transform="translate(-528.966 -1592.01)" fill="#82b378"/>
          <path id="Path_159" data-name="Path 159" d="M550.417,1622.973s3.276-6.625,6.215-5.7-4.691,6.181-4.691,6.181Z" transform="translate(-543.165 -1613.573)" fill="#82b378"/>
          <path id="Path_160" data-name="Path 160" d="M500.763,1650.713s3.309-1.826,6.161-1.369a15.627,15.627,0,0,1,4.564,1.369c1.255.457,2.8,1.369,2.111,1.769s-6.39-.342-7.759,0S497.307,1651.964,500.763,1650.713Z" transform="translate(-499.831 -1641.061)" fill="#82b378"/>
        </g>
        <g id="Group_179" data-name="Group 179" transform="translate(-414.697 -51.653)">
          <path id="Path_161" data-name="Path 161" d="M958.668,1653.372s3.839-17.881,9.188-13.689S961.8,1648,958.668,1653.372Z" transform="translate(-953.154 -1639.046)" fill="#82b378"/>
          <path id="Path_162" data-name="Path 162" d="M945.123,1664.233s-1.755-12.993,1.795-13.629S945.168,1660.3,945.123,1664.233Z" transform="translate(-941.179 -1648.923)" fill="#82b378"/>
          <path id="Path_163" data-name="Path 163" d="M920.531,1730.566a13.468,13.468,0,0,1,5.3-1.35c2.232.138,8.239.849,7.688,2.037s-6.56.16-8.082.354S918.887,1731.688,920.531,1730.566Z" transform="translate(-920.205 -1716.28)" fill="#82b378"/>
        </g>
        <g id="Group_180" data-name="Group 180" transform="translate(-207.208 -58.957)">
          <path id="Path_164" data-name="Path 164" d="M2367.469,1606.676s-.114-6.161,2.739-7.245S2367.754,1605.078,2367.469,1606.676Z" transform="translate(-2367.468 -1597.704)" fill="#509b67"/>
          <path id="Path_165" data-name="Path 165" d="M2383.453,1596.191s2.177-7.8,6.175-8.085S2384.414,1594.288,2383.453,1596.191Z" transform="translate(-2381.161 -1588.097)" fill="#509b67"/>
        </g>
        <g id="Group_182" data-name="Group 182" transform="translate(-473.309 -81.842)">
          <path id="Path_166" data-name="Path 166" d="M512.777,1432.793c1.148.465,5.248.089,5.381-.239s-2.549-3.452-3.7-3.917a2.242,2.242,0,0,0-1.684,4.156Z" transform="translate(-511.376 -1428.472)" fill="#509b67"/>
          <path id="Path_167" data-name="Path 167" d="M588.8,1465.834c-.644,1.057-.935,5.165-.633,5.349s3.819-1.958,4.463-3.016a2.242,2.242,0,1,0-3.83-2.333Z" transform="translate(-577.053 -1459.556)" fill="#509b67"/>
          <path id="Path_168" data-name="Path 168" d="M545.421,1502.165c1.18.376,5.24-.311,5.347-.647s-2.8-3.248-3.984-3.625a2.242,2.242,0,1,0-1.363,4.272Z" transform="translate(-539.203 -1487.849)" fill="#509b67"/>
          <g id="Group_181" data-name="Group 181" transform="translate(6.643 3.987)">
            <path id="Path_169" data-name="Path 169" d="M563.258,1470.588c0-.094-.458-9.39-5.548-14.189l.108-.115c5.137,4.844,5.593,14.2,5.6,14.3Z" transform="translate(-557.71 -1456.284)" fill="#509b67"/>
          </g>
        </g>
        <g id="Group_184" data-name="Group 184" transform="translate(-443.306 -89.611)">
          <path id="Path_170" data-name="Path 170" d="M788.92,1378.724c-1.114.74-5.535,1.226-5.746.908s1.953-4.2,3.067-4.943a2.422,2.422,0,0,1,2.679,4.035Z" transform="translate(-774.198 -1374.284)" fill="#509b67"/>
          <path id="Path_171" data-name="Path 171" d="M724.85,1430.64c.91.98,2.1,5.264,1.824,5.524s-4.464-1.249-5.374-2.229a2.422,2.422,0,1,1,3.55-3.3Z" transform="translate(-720.653 -1421.898)" fill="#509b67"/>
          <path id="Path_172" data-name="Path 172" d="M768.108,1459.186c-1.167.653-5.612.8-5.8.468s2.267-4.043,3.435-4.7a2.422,2.422,0,0,1,2.364,4.227Z" transform="translate(-756.328 -1443.128)" fill="#509b67"/>
          <g id="Group_183" data-name="Group 183" transform="translate(5.875 5.241)">
            <path id="Path_173" data-name="Path 173" d="M762.074,1427.153c-.016-.1-1.541-10.036,2.81-16.214l-.139-.1c-4.392,6.235-2.855,16.238-2.839,16.339Z" transform="translate(-761.633 -1410.841)" fill="#509b67"/>
          </g>
        </g>
        <g id="Group_187" data-name="Group 187" transform="translate(-462.205 -96.392)">
          <g id="Group_185" data-name="Group 185" transform="translate(4.839 4.712)">
            <path id="Path_174" data-name="Path 174" d="M629.344,1388.777l-.327-.052a99.614,99.614,0,0,0-6.439-28.746l.3-.128A99.927,99.927,0,0,1,629.344,1388.777Z" transform="translate(-622.578 -1359.851)" fill="#509b67"/>
          </g>
          <g id="Group_186" data-name="Group 186" transform="translate(0 0)">
            <path id="Path_175" data-name="Path 175" d="M595.966,1332.039a8.8,8.8,0,0,0,3.764,1.673,8.8,8.8,0,0,0-1.193-3.942,1.715,1.715,0,0,0-2.571,2.269Z" transform="translate(-594.575 -1328.874)" fill="#fff"/>
            <path id="Path_176" data-name="Path 176" d="M624.437,1327.677a8.8,8.8,0,0,0-.863,4.027,8.8,8.8,0,0,0,3.613-1.978,1.715,1.715,0,0,0-2.75-2.049Z" transform="translate(-618.549 -1326.987)" fill="#fff"/>
            <path id="Path_177" data-name="Path 177" d="M629.148,1354.51a2.265,2.265,0,1,0-.9,3.308,1.715,1.715,0,0,0,.9-3.308Z" transform="translate(-619.885 -1350.517)" fill="#fff"/>
            <path id="Path_178" data-name="Path 178" d="M618.505,1362.28a8.8,8.8,0,0,0-2.067-3.563,8.8,8.8,0,0,0-1.346,3.893,1.715,1.715,0,1,0,3.413-.33Z" transform="translate(-611.322 -1354.168)" fill="#fff"/>
            <path id="Path_179" data-name="Path 179" d="M591.341,1361.775a8.8,8.8,0,0,0,2.519-3.259,8.8,8.8,0,0,0-4.113.223,1.714,1.714,0,1,0,1.594,3.036Z" transform="translate(-588.829 -1353.866)" fill="#fff"/>
            <path id="Path_180" data-name="Path 180" d="M619.987,1355.959a.565.565,0,1,1,.469.646A.565.565,0,0,1,619.987,1355.959Z" transform="translate(-615.514 -1351.398)" fill="#f99746"/>
          </g>
          <path id="Path_181" data-name="Path 181" d="M659.12,1437.037c-.932,1.146-1.937,5.953-1.61,6.219s4.828-1.7,5.759-2.844a2.674,2.674,0,1,0-4.149-3.374Z" transform="translate(-647.609 -1420.414)" fill="#509b67"/>
        </g>
        <g id="Group_190" data-name="Group 190" transform="translate(-425.361 -95.297)">
          <g id="Group_188" data-name="Group 188" transform="translate(4.655 4.711)">
            <path id="Path_182" data-name="Path 182" d="M878.293,1396.412l.327-.052a99.607,99.607,0,0,1,6.439-28.745l-.3-.128A99.938,99.938,0,0,0,878.293,1396.412Z" transform="translate(-878.293 -1367.486)" fill="#509b67"/>
          </g>
          <g id="Group_189" data-name="Group 189" transform="translate(5.732 0)">
            <path id="Path_183" data-name="Path 183" d="M926.846,1339.674a8.8,8.8,0,0,1-3.764,1.673,8.8,8.8,0,0,1,1.193-3.942,1.715,1.715,0,1,1,2.571,2.269Z" transform="translate(-917.71 -1336.509)" fill="#fff"/>
            <path id="Path_184" data-name="Path 184" d="M899.706,1335.313a8.8,8.8,0,0,1,.863,4.027,8.8,8.8,0,0,1-3.613-1.978,1.715,1.715,0,0,1,2.75-2.049Z" transform="translate(-895.066 -1334.623)" fill="#fff"/>
            <path id="Path_185" data-name="Path 185" d="M887.068,1362.146a2.265,2.265,0,1,1,.9,3.308,1.715,1.715,0,1,1-.9-3.308Z" transform="translate(-885.804 -1358.153)" fill="#fff"/>
            <path id="Path_186" data-name="Path 186" d="M909.085,1369.914a8.8,8.8,0,0,1,2.067-3.563,8.8,8.8,0,0,1,1.346,3.893,1.715,1.715,0,0,1-3.413-.33Z" transform="translate(-905.74 -1361.803)" fill="#fff"/>
            <path id="Path_187" data-name="Path 187" d="M926.626,1369.411a2.265,2.265,0,1,1,1.594-3.036,1.715,1.715,0,1,1-1.594,3.036Z" transform="translate(-918.61 -1361.502)" fill="#fff"/>
            <path id="Path_188" data-name="Path 188" d="M921.328,1363.6a.565.565,0,1,0-.469.646A.565.565,0,0,0,921.328,1363.6Z" transform="translate(-915.273 -1359.034)" fill="#f99746"/>
          </g>
          <path id="Path_189" data-name="Path 189" d="M850.57,1444.672c.932,1.146,1.938,5.953,1.61,6.219s-4.828-1.7-5.76-2.844a2.674,2.674,0,0,1,4.149-3.374Z" transform="translate(-845.821 -1428.049)" fill="#509b67"/>
        </g>
        <g id="Group_192" data-name="Group 192" transform="translate(-235.376 -72.449)">
          <path id="Path_190" data-name="Path 190" d="M2172.77,1499.688c1.5.663,6.955.331,7.145-.1s-3.24-4.681-4.743-5.344a2.974,2.974,0,0,0-2.4,5.443Z" transform="translate(-2170.995 -1493.992)" fill="#509b67"/>
          <path id="Path_191" data-name="Path 191" d="M2271.408,1546.685c-.9,1.376-1.449,6.811-1.057,7.067s5.143-2.441,6.04-3.818a2.974,2.974,0,1,0-4.983-3.249Z" transform="translate(-2255.997 -1537.973)" fill="#509b67"/>
          <path id="Path_192" data-name="Path 192" d="M2213.243,1593c1.549.547,6.96-.2,7.116-.642s-3.587-4.421-5.136-4.968a2.974,2.974,0,1,0-1.98,5.609Z" transform="translate(-2205.486 -1573.852)" fill="#509b67"/>
          <g id="Group_191" data-name="Group 191" transform="translate(8.734 5.471)">
            <path id="Path_193" data-name="Path 193" d="M2238.7,1551.341c0-.124-.226-12.469-6.781-19.04l.148-.148c6.615,6.631,6.841,19.06,6.842,19.185Z" transform="translate(-2231.916 -1532.153)" fill="#509b67"/>
          </g>
        </g>
        <g id="Group_195" data-name="Group 195" transform="translate(-219.91 -76.861)">
          <g id="Group_193" data-name="Group 193" transform="translate(4.234 4.123)">
            <path id="Path_194" data-name="Path 194" d="M2314.331,1517.294l-.286-.046a87.167,87.167,0,0,0-5.635-25.157l.26-.112A87.465,87.465,0,0,1,2314.331,1517.294Z" transform="translate(-2308.409 -1491.979)" fill="#509b67"/>
          </g>
          <g id="Group_194" data-name="Group 194" transform="translate(0 0)">
            <path id="Path_195" data-name="Path 195" d="M2285.12,1467.639a1.982,1.982,0,1,0,2.25-1.986,1.5,1.5,0,1,0-2.25,1.986Z" transform="translate(-2283.902 -1464.87)" fill="#fff"/>
            <path id="Path_196" data-name="Path 196" d="M2310.037,1463.823a1.982,1.982,0,1,0,2.406,1.793,1.5,1.5,0,1,0-2.406-1.793Z" transform="translate(-2304.884 -1463.219)" fill="#fff"/>
            <path id="Path_197" data-name="Path 197" d="M2314.16,1487.306a1.982,1.982,0,1,0-.789,2.9,1.5,1.5,0,0,0,.789-2.9Z" transform="translate(-2306.053 -1483.811)" fill="#fff"/>
            <path id="Path_198" data-name="Path 198" d="M2304.846,1494.1a1.982,1.982,0,1,0-2.987.289,1.5,1.5,0,0,0,2.987-.289Z" transform="translate(-2298.56 -1487.006)" fill="#fff"/>
            <path id="Path_199" data-name="Path 199" d="M2281.072,1493.664a1.982,1.982,0,1,0-1.4-2.657,1.5,1.5,0,1,0,1.4,2.657Z" transform="translate(-2278.873 -1486.742)" fill="#fff"/>
            <path id="Path_200" data-name="Path 200" d="M2306.143,1488.574a.494.494,0,1,1,.41.566A.494.494,0,0,1,2306.143,1488.574Z" transform="translate(-2302.228 -1484.582)" fill="#f99746"/>
          </g>
          <path id="Path_201" data-name="Path 201" d="M2340.39,1559.531c-.815,1-1.7,5.21-1.409,5.442s4.225-1.486,5.041-2.489a2.34,2.34,0,1,0-3.631-2.953Z" transform="translate(-2330.316 -1544.983)" fill="#509b67"/>
        </g>
        <path id="Path_202" data-name="Path 202" d="M2323.5,1654.386l-68.164-.031c.344-3.249,6.514-4.89,5.943-8.1-.734-4.107-31.1-5.648-18.914-10.889,11.969-5.146,37.357-4.219,38.266-4.185l.026,0c4.45.342,38.681-2.054,42.788,4.108S2323.5,1654.386,2323.5,1654.386Z" transform="translate(-2465.041 -1683.812)" fill="#509b67"/>
        <path id="Path_203" data-name="Path 203" d="M2391.618,1317.493c-6.475-.315-16.219-.815-24.615-1.361-14.034-.914-7.873-5.249-1.369-11.413s-20.2-2.737-40.05-1.362-49.634.68-39.027-7.912,87.7-18.37,87.7-18.37q.465.457.924.923.791.8,1.564,1.609a69.51,69.51,0,0,1,5.987,7.07c.4.546.791,1.1,1.172,1.667q.67,1,1.3,2.04a44.018,44.018,0,0,1,3.478,7.137A49.894,49.894,0,0,1,2391.618,1317.493Z" transform="translate(-2503.463 -1380.622)" fill="#daed8e"/>
        <path id="Path_204" data-name="Path 204" d="M220.484,1159.75c-6.523,0-17.062.342-13.846,2.4s5.954,5.135-5,5.477c-10.829.339-17.037.885-17.177.9a117.965,117.965,0,0,1-.816-19.434s10.144-2.891,16.306,0,10.587.566,15.38,3.647,14.89,3.423,16.944,5.135S227,1159.75,220.484,1159.75Z" transform="translate(-703.853 -1269.881)" fill="#82b378"/>
        <g id="Group_196" data-name="Group 196" transform="translate(-251.946 -53.155)">
          <path id="Path_205" data-name="Path 205" d="M2117.1,1642.007l.48-8.164s-4.108-3.418-4.695-3.653-9.455-1.591-9.455-1.591l.384,7.668,2.777,5.572Z" transform="translate(-2096.551 -1628.595)" fill="#edc5a2"/>
          <path id="Path_206" data-name="Path 206" d="M2055.773,1641.711s-.573-5.944-.268-6.594,5.871-6.732,6.795-6.544a36.847,36.847,0,0,1,6.912,2.81c.892.72,2.965,6.345,2.931,6.93s-.212,3.6-.212,3.6Z" transform="translate(-2055.416 -1628.569)" fill="#f9ddbf"/>
        </g>
        <g id="Group_197" data-name="Group 197" transform="translate(-260.453 -45.413)">
          <path id="Path_207" data-name="Path 207" d="M2041.444,1690.151l.063-3.5a1.714,1.714,0,0,0-.682-1.4,31.53,31.53,0,0,0-2.865-2.017c-.274-.1-2.943-.419-4.9-.647a1.714,1.714,0,0,0-1.905,1.859l.288,3.172a1.715,1.715,0,0,0,.205.672l1.534,2.787a1.715,1.715,0,0,0,1.545.888l5.048-.125A1.715,1.715,0,0,0,2041.444,1690.151Z" transform="translate(-2026.116 -1682.571)" fill="#edc5a2"/>
          <path id="Path_208" data-name="Path 208" d="M1998.069,1692.5a1.715,1.715,0,0,1-1.752-1.515,15.872,15.872,0,0,1-.2-3.283c.205-.487,5.565-4.84,6.25-4.73a14.979,14.979,0,0,1,3.719,1.573c.678.5,2.371,4.578,2.363,5.009l-.018,1.017a1.715,1.715,0,0,1-1.667,1.684Z" transform="translate(-1996.076 -1682.914)" fill="#f9ddbf"/>
        </g>
        <g id="Group_198" data-name="Group 198" transform="translate(-386.573 -65.351)">
          <path id="Path_209" data-name="Path 209" d="M1116.423,1549.907l-.053-2.963a1.448,1.448,0,0,1,.577-1.184,26.482,26.482,0,0,1,2.423-1.706c.232-.082,2.489-.355,4.148-.548a1.45,1.45,0,0,1,1.611,1.572l-.244,2.682a1.451,1.451,0,0,1-.174.568l-1.3,2.357a1.451,1.451,0,0,1-1.307.751l-4.269-.105A1.45,1.45,0,0,1,1116.423,1549.907Z" transform="translate(-1116.369 -1543.497)" fill="#edc5a2"/>
          <path id="Path_210" data-name="Path 210" d="M1142.944,1551.9a1.451,1.451,0,0,0,1.481-1.281,13.407,13.407,0,0,0,.167-2.776c-.173-.412-4.706-4.093-5.285-4a12.656,12.656,0,0,0-3.145,1.33,14.726,14.726,0,0,0-2,4.236l.015.86a1.451,1.451,0,0,0,1.41,1.424Z" transform="translate(-1131.613 -1543.788)" fill="#f9ddbf"/>
        </g>
        <g id="Group_199" data-name="Group 199" transform="translate(-398.67 -60.248)">
          <path id="Path_211" data-name="Path 211" d="M1032.024,1582.578l-.029-1.611a.787.787,0,0,1,.313-.644,14.49,14.49,0,0,1,1.318-.928c.126-.045,1.354-.193,2.255-.3a.788.788,0,0,1,.876.855l-.133,1.459a.792.792,0,0,1-.094.309l-.705,1.281a.788.788,0,0,1-.71.408l-2.322-.057A.789.789,0,0,1,1032.024,1582.578Z" transform="translate(-1031.995 -1579.093)" fill="#edc5a2"/>
          <path id="Path_212" data-name="Path 212" d="M1046.447,1583.659a.789.789,0,0,0,.806-.7,7.3,7.3,0,0,0,.091-1.51,12.361,12.361,0,0,0-2.874-2.175,6.887,6.887,0,0,0-1.71.723,8.008,8.008,0,0,0-1.087,2.3l.009.468a.789.789,0,0,0,.766.774Z" transform="translate(-1040.285 -1579.25)" fill="#f9ddbf"/>
        </g>
        <g id="Group_200" data-name="Group 200" transform="translate(-278.304 -55.01)">
          <path id="Path_213" data-name="Path 213" d="M1871.594,1619.115l-.029-1.611a.787.787,0,0,1,.313-.644,14.46,14.46,0,0,1,1.317-.927c.126-.045,1.354-.193,2.255-.3a.788.788,0,0,1,.876.855l-.133,1.459a.79.79,0,0,1-.094.309l-.705,1.281a.789.789,0,0,1-.711.408l-2.321-.057A.789.789,0,0,1,1871.594,1619.115Z" transform="translate(-1871.564 -1615.629)" fill="#edc5a2"/>
          <path id="Path_214" data-name="Path 214" d="M1886.015,1620.2a.789.789,0,0,0,.806-.7,7.307,7.307,0,0,0,.091-1.51,12.362,12.362,0,0,0-2.874-2.175,6.9,6.9,0,0,0-1.71.723,8.016,8.016,0,0,0-1.087,2.3l.009.468a.789.789,0,0,0,.766.774Z" transform="translate(-1879.853 -1615.787)" fill="#f9ddbf"/>
        </g>
        <g id="Group_201" data-name="Group 201" transform="translate(-431.052 -38.03)">
          <path id="Path_215" data-name="Path 215" d="M806.156,1737.555l-.029-1.611a.788.788,0,0,1,.313-.644,14.433,14.433,0,0,1,1.317-.927c.126-.045,1.354-.193,2.256-.3a.788.788,0,0,1,.876.855l-.133,1.459a.793.793,0,0,1-.094.309l-.705,1.281a.789.789,0,0,1-.711.408l-2.321-.057A.789.789,0,0,1,806.156,1737.555Z" transform="translate(-806.127 -1734.069)" fill="#edc5a2"/>
          <path id="Path_216" data-name="Path 216" d="M820.579,1738.637a.789.789,0,0,0,.806-.7,7.3,7.3,0,0,0,.091-1.51,12.358,12.358,0,0,0-2.874-2.175,6.884,6.884,0,0,0-1.71.723,8,8,0,0,0-1.087,2.3l.009.468a.789.789,0,0,0,.766.774Z" transform="translate(-814.417 -1734.228)" fill="#f9ddbf"/>
        </g>
        <g id="Group_202" data-name="Group 202" transform="translate(-393.904 -63.894)">
          <path id="Path_217" data-name="Path 217" d="M1065.26,1556.087l-.02-1.122a.548.548,0,0,1,.219-.448,9.988,9.988,0,0,1,.918-.646c.088-.031.943-.135,1.571-.208a.549.549,0,0,1,.61.6l-.092,1.016a.55.55,0,0,1-.066.215l-.491.893a.55.55,0,0,1-.495.284l-1.617-.04A.549.549,0,0,1,1065.26,1556.087Z" transform="translate(-1065.239 -1553.659)" fill="#edc5a2"/>
          <path id="Path_218" data-name="Path 218" d="M1075.306,1556.84a.55.55,0,0,0,.561-.485,5.069,5.069,0,0,0,.063-1.052,8.611,8.611,0,0,0-2-1.515,4.8,4.8,0,0,0-1.191.5,5.578,5.578,0,0,0-.757,1.6l.006.326a.549.549,0,0,0,.534.539Z" transform="translate(-1071.014 -1553.769)" fill="#f9ddbf"/>
        </g>
        <g id="Group_229" data-name="Group 229" transform="translate(-853.56 -438.827)">
          <path id="Path_219" data-name="Path 219" d="M1109.784,581.522a79.334,79.334,0,0,1-78.319,66.919l-224.729-.117-196.891-.078H509.232l-56.065-.039h-9.878l-45.719-.039H385.155l-78.788-.039H292.624l-60.867-.039h-13L124.9,648.05a81.852,81.852,0,0,1-72.19-43.22c-6.091-11.361-12.65-24.714-18.975-39.589a443.2,443.2,0,0,1-26.2-82.028A340.522,340.522,0,0,1,0,406.533c.078-4.763.312-9.6.625-14.407.273-4.178.664-8.394,1.132-12.611a274.221,274.221,0,0,1,7.769-40.995,267.384,267.384,0,0,1,19.014-49.935A289.312,289.312,0,0,1,67.349,230.3a338.451,338.451,0,0,1,29.36-30.414c194.2-178.62,382.578-103.5,409.517-103.5,129.738,0,98.387-81.911,242.064-94.444,303.868-26.51,258.657,253.425,258.657,253.425s-4.49,15.383-5.856,21.122q-2.811,11.537-4.334,21.9c-.078.508-.156,1.054-.234,1.562-.273,1.991-.547,3.982-.742,5.9a152.773,152.773,0,0,0-.039,37.09,113.343,113.343,0,0,0,19.6,51.029,191.111,191.111,0,0,0,21.981,25.885c2.225,2.264,4.529,4.49,6.793,6.715,2.967,2.85,5.974,5.7,8.941,8.55,3.982,3.787,8,7.613,11.947,11.518.859.82,1.679,1.679,2.5,2.5,1.445,1.445,2.85,2.889,4.256,4.373a188.769,188.769,0,0,1,16.32,19.248c1.093,1.484,2.147,3.006,3.2,4.529,1.21,1.8,2.382,3.67,3.514,5.544a119.747,119.747,0,0,1,9.487,19.443C1112.127,522.8,1115.094,548.1,1109.784,581.522Z" transform="translate(0.063 -0.165)" fill="#eceef0"/>
          <path id="Path_220" data-name="Path 220" d="M563.7,880.526,482.414,928.86,147.742,878.651.2,808.024c.078-4.763.312-9.6.625-14.407.273-4.177.664-8.394,1.132-12.611a274.222,274.222,0,0,1,7.769-40.995A267.388,267.388,0,0,1,28.74,690.076s99.4-41.268,119-28.891C167.3,673.6,223.25,749.108,248.432,745.36s43.806-36.934,77.382,10.893,52.2,64.889,82.965,46.578,46.617-44.43,72.7-28.579S563.7,880.526,563.7,880.526Z" transform="translate(-0.097 -401.694)" fill="#8e99a8" opacity="0.2"/>
          <path id="Path_221" data-name="Path 221" d="M1972.3,703.83c-73.829,24.792-308.241,102.409-363.525,107.133-65.826,5.583-75.079-48.881-75.079-48.881s73.634-106.274,82.965-104.4,34.748,43.61,44.547,36.622,50.755-149.142,66.411-150.626c14.68-1.406,36.192,32.366,42.283,26.744,3.4-3.123,18.662-35.021,34.436-62.741,12.572-22.137,25.456-41.58,32.835-41.58,7.379.039,17.491,16.046,28.111,36.388h0c17.96,34.279,37.442,80.779,48.3,83.317,5.349,1.249,11.6-.7,18.233-3.475-.078.508-.156,1.054-.234,1.562-.273,1.991-.547,3.982-.742,5.9a152.767,152.767,0,0,0-.039,37.09,113.343,113.343,0,0,0,19.6,51.029A180.674,180.674,0,0,0,1972.3,703.83Z" transform="translate(-934.88 -284.187)" fill="#8e99a8" opacity="0.4"/>
          <path id="Path_222" data-name="Path 222" d="M1697.655,1067.619s26.549-48.1,30.766-40.409c4.177,7.691,16.085,11.518,21.669,3.319s73.556-81.833,75.235-63.561c1.679,18.311-26.276,63.8-15.109,65.865,11.205,2.069,72.7-59.462,94.366-46.851,21.669,12.572,46.148-10.5,69.222-9.8s22.371,53.918,22.371,53.918l-186.662,57.236-88.08,4.178-41.932-4.88Z" transform="translate(-1023.756 -587.734)" fill="#8e99a8" opacity="0.4"/>
          <path id="Path_223" data-name="Path 223" d="M2174.363,1049.79s-303.4,63.21-335.063,61.492c0,0,22.371-22.254,50.365-23.191s40.1-27.33,72.7-30.453c32.64-3.123,52.2,3.865,65.708-3.123s28.892-41.034,60.594-40.1c27.174.82,37.559.234,47.905-5.817,8.277,12.064,18.35,22.488,28.813,32.6C2168.35,1044.129,2171.357,1046.94,2174.363,1049.79Z" transform="translate(-1121.166 -614.881)" fill="#8e99a8"/>
          <path id="Path_224" data-name="Path 224" d="M448.72,989.869,1.8,913.58v-.039c.273-4.178.664-8.394,1.132-12.611A274.224,274.224,0,0,1,10.7,859.935s47.671-9.6,70.745,0,20.966,24.987,39.16,27.057c18.155,2.108,34.67.351,48.335,11.205,13.665,10.893,34.2,18.662,55.011,17.413s65.24-6.208,82.653,7.769c17.374,14.016,51.848,44.469,81.677,44s46.383,7.457,51.263,14.446C444.308,988.58,448.485,989.791,448.72,989.869Z" transform="translate(-1.073 -521.657)" fill="#b6bcc7"/>
          <path id="Path_225" data-name="Path 225" d="M1112.352,1148.729a212.391,212.391,0,0,1-2.538,24.87,79.334,79.334,0,0,1-78.319,66.919l-224.729-.117-196.891-.078H509.262l-56.065-.039H443.32l-45.719-.039H385.185l-78.788-.039H292.654l-64.342-.039h-9.526l-93.858-.039a81.851,81.851,0,0,1-72.19-43.22c-15.773-29.633-34.787-72.385-45.133-121.657Q4.443,1060.317,2.49,1044.6A320.377,320.377,0,0,1,.265,991.661c.273-6.676.82-13.392,1.562-20.146,44-.586,160.231,2.811,298.558,46.773,176.785,56.182,339.826,92.3,458.672,62.937,98.856-24.441,221.644-54.66,294.068-54.074,3.982,3.787,8,7.613,11.947,11.517.859.82,1.679,1.679,2.5,2.5,1.445,1.445,2.85,2.889,4.256,4.373a188.765,188.765,0,0,1,16.32,19.248c1.093,1.484,2.147,3.006,3.2,4.529,1.21,1.8,2.382,3.67,3.514,5.544a119.745,119.745,0,0,1,9.487,19.443C1110.088,1109.452,1113.211,1127.138,1112.352,1148.729Z" transform="translate(0.033 -592.242)" fill="#bae0b2"/>
          <path id="Path_226" data-name="Path 226" d="M1353.5,443.309s13.665-25.143,46.3-22.371c0,0,47.4-41.932,97.958-5.583,0,0,53.761-9.019,93.546,7.809,26.549,11.205,35.295,22.957,35.295,22.957Z" transform="translate(-825.035 -244.217)" fill="#f8fcff" opacity="0.8"/>
          <path id="Path_227" data-name="Path 227" d="M887.1,612.726s11.557-17.686,39.238-15.734c0,0,40.175-29.477,82.965-3.943,0,0,45.524-6.325,79.217,5.466,22.489,7.887,29.907,16.125,29.907,16.125Z" transform="translate(-540.729 -355.227)" fill="#f8fcff" opacity="0.8"/>
          <path id="Path_228" data-name="Path 228" d="M519.5,406.926s8.238-17.686,27.954-15.734c0,0,28.618-29.477,59.11-3.943,0,0,32.405-6.325,56.416,5.466,16.007,7.887,21.278,16.125,21.278,16.125Z" transform="translate(-316.649 -229.776)" fill="#f8fcff" opacity="0.8"/>
          <path id="Path_229" data-name="Path 229" d="M591.421,1153.036s-173.5-19.717-243.7-45.211c-70.237-25.495-75.313-18-58.329-4.49s115.019,45.406,74.415,49.037c-40.643,3.631-113.731-7.028-141.295,21.161s-70.862,53.566,0,59.032,277.748-33.381,277.748-33.381Z" transform="translate(-112.11 -665.069)" fill="#cbe8c6"/>
          <path id="Path_230" data-name="Path 230" d="M1636.527,1171.7s25.182,60.594,27.954,62.468c2.811,1.874,13.079,4.217,13.782,7.028s16.788,39.862,16.788,39.862l-61.531,11.869-48.92-28.657Z" transform="translate(-965.908 -714.303)" fill="#ab7d4b"/>
          <path id="Path_231" data-name="Path 231" d="M1173.23,1339.927l-185.647-.078H948.5l-196.891-.078H651l-56.065-.039h-9.878l-45.719-.039H526.92l-78.788-.039H434.389l-64.342-.039H360.52l-93.858-.039a81.835,81.835,0,0,1-34.162-7.457c50.209-23.386,203.1-93.39,324.365-136.375,147.268-52.2,231.171-80.154,255.416-46.617,24.245,33.577-64.3,104.4-15.851,106.274,48.491,1.874,164.994-13.04,208.8-4.646,43.728,8.355,39.16,25.1,51.185,26.08h.078c12.1.937,105.337-5.583,116.542,11.205C1184.24,1304.71,1173.23,1339.927,1173.23,1339.927Z" transform="translate(-141.701 -691.651)" fill="#cfb598"/>
          <path id="Path_232" data-name="Path 232" d="M2287.684,502.488h0s-16.164-12.611-19.873-16.4c-3.748-3.787-8.394,5.349-11.205,9.253s-3.124-8.277-3.124-11.986c0-3.748-26.783,24.323-26.783,24.323h0c12.572-22.137,25.456-41.58,32.835-41.58C2266.953,466.139,2277.065,482.185,2287.684,502.488Z" transform="translate(-1357.315 -284.187)" fill="#f8fcff" opacity="0.8"/>
          <path id="Path_233" data-name="Path 233" d="M1968.7,699.382s19.092-50.6,29.048-49.037,23.543,24.519,23.543,24.519-13.821-11.83-16.4-7.887-3.045,11.791-7.457,7.887-7.223-4.49-9.565,0C1985.527,679.314,1968.7,699.382,1968.7,699.382Z" transform="translate(-1200.045 -396.477)" fill="#f8fcff"/>
          <path id="Path_234" data-name="Path 234" d="M330.338,1426.111c-12.1,14.914-86.713,19.56-84.371,30.3,1.874,8.589,36.349,14.8,38.457,25.065h-13l-93.858-.039a81.852,81.852,0,0,1-72.19-43.22c-6.091-11.361-12.65-24.714-18.975-39.589,0,0,31.82-32.054,110.1-19.482,78.319,12.533,89.173-19.951,125.834-9.839,36.7,10.112,46.148,1.484,59.657,9.839s-51.263,22.332-58.251,28.852C316.829,1414.437,342.441,1411.2,330.338,1426.111Z" transform="translate(-52.643 -833.549)" fill="#3fa82a"/>
          <g id="Group_203" data-name="Group 203" transform="translate(54.241 501.073)">
            <path id="Path_235" data-name="Path 235" d="M179.484,1331.329s-16.007-38.3-.859-46.656-1.718,32.874,4.763,48.178C186.59,1340.465,179.484,1331.329,179.484,1331.329Z" transform="translate(-159.129 -1283.567)" fill="#3fa82a"/>
            <path id="Path_236" data-name="Path 236" d="M151.841,1374.948s-19.716-24.206-10.541-33.616c9.214-9.409,5.739,24.206,13.665,33.889C158.947,1379.985,151.841,1374.948,151.841,1374.948Z" transform="translate(-138.865 -1317.777)" fill="#3fa82a"/>
            <path id="Path_237" data-name="Path 237" d="M209.193,1360.658s-1.874-38.027,13.977-40.6c15.851-2.616-11.869,27.915-11.049,43.142C212.512,1370.731,209.193,1360.658,209.193,1360.658Z" transform="translate(-181.693 -1305.712)" fill="#3fa82a"/>
          </g>
          <g id="Group_204" data-name="Group 204" transform="translate(123.517 569.379)">
            <path id="Path_238" data-name="Path 238" d="M350.6,1483.539s-2.186-22.957,6.169-24.909c8.316-1.991-1.835,23.894-1.835,23.894Z" transform="translate(-337.05 -1458.52)" fill="#6dbd5d"/>
            <path id="Path_239" data-name="Path 239" d="M366.9,1499.468s8.941-18.038,16.944-15.539-12.767,16.827-12.767,16.827Z" transform="translate(-347.145 -1473.864)" fill="#6dbd5d"/>
            <path id="Path_240" data-name="Path 240" d="M318.839,1519.651s9.019-4.958,16.788-3.748c7.769,1.249,9.019,2.5,12.416,3.748,3.436,1.249,7.613,3.709,5.739,4.8s-17.413-.937-21.122,0C328.951,1525.429,309.43,1523.087,318.839,1519.651Z" transform="translate(-316.302 -1493.383)" fill="#6dbd5d"/>
          </g>
          <g id="Group_205" data-name="Group 205" transform="translate(287.63 587.748)">
            <path id="Path_241" data-name="Path 241" d="M775.1,1544.585s10.463-48.686,25.026-37.286S783.65,1529.944,775.1,1544.585Z" transform="translate(-760.086 -1505.57)" fill="#6dbd5d"/>
            <path id="Path_242" data-name="Path 242" d="M762.364,1554.212s-4.763-35.373,4.88-37.13C776.926,1515.365,762.481,1543.514,762.364,1554.212Z" transform="translate(-751.605 -1512.542)" fill="#6dbd5d"/>
            <path id="Path_243" data-name="Path 243" d="M737.526,1599.429s8.355-4.061,14.446-3.67,22.449,2.3,20.927,5.544c-1.484,3.24-17.881.429-22.02.976C746.74,1602.786,733.075,1602.474,737.526,1599.429Z" transform="translate(-736.645 -1560.531)" fill="#6dbd5d"/>
          </g>
          <g id="Group_206" data-name="Group 206" transform="translate(852.673 567.859)">
            <path id="Path_244" data-name="Path 244" d="M2183.9,1485.911s-.312-16.788,7.457-19.716C2199.124,1463.228,2184.678,1481.539,2183.9,1485.911Z" transform="translate(-2183.896 -1461.482)" fill="#3fa82a"/>
            <path id="Path_245" data-name="Path 245" d="M2199.9,1476.677s5.935-21.239,16.827-22.02C2227.62,1453.837,2202.516,1471.484,2199.9,1476.677Z" transform="translate(-2193.651 -1454.629)" fill="#3fa82a"/>
          </g>
          <g id="Group_208" data-name="Group 208" transform="translate(127.999 505.523)">
            <path id="Path_246" data-name="Path 246" d="M331.615,1306.732c3.123,1.249,14.29.234,14.641-.664s-6.95-9.409-10.073-10.659a6.1,6.1,0,1,0-4.568,11.322Z" transform="translate(-327.781 -1294.967)" fill="#3fa82a"/>
            <path id="Path_247" data-name="Path 247" d="M406.608,1334.229c-1.757,2.889-2.538,14.055-1.718,14.563s10.385-5.349,12.142-8.2a6.107,6.107,0,1,0-10.424-6.364Z" transform="translate(-374.586 -1317.115)" fill="#3fa82a"/>
            <path id="Path_248" data-name="Path 248" d="M364.539,1376.186c3.2,1.015,14.25-.859,14.563-1.757.273-.9-7.652-8.863-10.854-9.878a6.106,6.106,0,1,0-3.709,11.635Z" transform="translate(-347.587 -1337.208)" fill="#3fa82a"/>
            <g id="Group_207" data-name="Group 207" transform="translate(18.123 10.867)">
              <path id="Path_249" data-name="Path 249" d="M389.309,1361.764c0-.273-1.249-25.573-15.109-38.652l.312-.312c13.977,13.2,15.227,38.691,15.227,38.925Z" transform="translate(-374.2 -1322.8)" fill="#3fa82a"/>
            </g>
          </g>
          <g id="Group_210" data-name="Group 210" transform="translate(209.718 484.364)">
            <path id="Path_250" data-name="Path 250" d="M615.293,1252.885c-3.045,2.03-15.07,3.358-15.656,2.46-.586-.859,5.31-11.439,8.355-13.47a6.605,6.605,0,0,1,7.3,11.01Z" transform="translate(-575.192 -1240.771)" fill="#3fa82a"/>
            <path id="Path_251" data-name="Path 251" d="M548.533,1298.478c2.46,2.655,5.739,14.329,4.958,15.031s-12.142-3.4-14.641-6.052a6.6,6.6,0,1,1,9.683-8.98Z" transform="translate(-537.09 -1274.651)" fill="#3fa82a"/>
            <path id="Path_252" data-name="Path 252" d="M594.63,1333.5c-3.162,1.8-15.266,2.186-15.773,1.288s6.169-11.01,9.37-12.806a6.608,6.608,0,0,1,8.98,2.538A6.691,6.691,0,0,1,594.63,1333.5Z" transform="translate(-562.534 -1289.76)" fill="#3fa82a"/>
            <g id="Group_209" data-name="Group 209" transform="translate(16.015 14.262)">
              <path id="Path_253" data-name="Path 253" d="M579.315,1321.73c-.039-.273-4.178-27.33,7.652-44.157l-.39-.273c-11.947,16.984-7.769,44.235-7.73,44.509Z" transform="translate(-578.108 -1277.3)" fill="#3fa82a"/>
            </g>
          </g>
          <g id="Group_213" data-name="Group 213" transform="translate(158.27 465.904)">
            <g id="Group_211" data-name="Group 211" transform="translate(13.151 12.81)">
              <path id="Path_254" data-name="Path 254" d="M457.428,1305.088l-.9-.156c-3.514-45.328-17.335-77.851-17.53-78.28l.82-.351C440.015,1226.769,453.953,1259.486,457.428,1305.088Z" transform="translate(-439 -1226.3)" fill="#3fa82a"/>
            </g>
            <g id="Group_212" data-name="Group 212">
              <path id="Path_255" data-name="Path 255" d="M413.171,1203.494c1.718,1.952,9.683,5.036,10.268,4.568.547-.469-1.523-8.785-3.241-10.737a4.675,4.675,0,0,0-7.028,6.169Z" transform="translate(-409.39 -1194.861)" fill="#fff"/>
              <path id="Path_256" data-name="Path 256" d="M442.53,1195.368c-1.523,2.069-2.928,10.541-2.343,10.971s8.316-3.319,9.839-5.388a4.673,4.673,0,0,0-7.5-5.583Z" transform="translate(-426.49 -1193.49)" fill="#fff"/>
              <path id="Path_257" data-name="Path 257" d="M452.642,1221.074c-2.5-.664-10.893,1.132-11.049,1.835-.2.7,6.13,6.52,8.628,7.184a4.687,4.687,0,0,0,5.739-3.28A4.76,4.76,0,0,0,452.642,1221.074Z" transform="translate(-427.427 -1210.216)" fill="#fff"/>
              <path id="Path_258" data-name="Path 258" d="M440.873,1234.921c-.234-2.577-4.88-9.761-5.622-9.722-.742.078-3.9,8.043-3.67,10.62a4.668,4.668,0,1,0,9.292-.9Z" transform="translate(-421.319 -1212.819)" fill="#fff"/>
              <path id="Path_259" data-name="Path 259" d="M412.143,1234.214c2.264-1.21,7.184-8.238,6.871-8.863-.351-.664-8.9-.586-11.205.625a4.654,4.654,0,0,0,4.334,8.238Z" transform="translate(-405.317 -1212.659)" fill="#fff"/>
              <path id="Path_260" data-name="Path 260" d="M436.461,1223.265a1.541,1.541,0,1,1,1.288,1.757A1.494,1.494,0,0,1,436.461,1223.265Z" transform="translate(-424.286 -1210.846)" fill="#caad8e"/>
            </g>
            <path id="Path_261" data-name="Path 261" d="M478.5,1305.214c-2.538,3.123-5.271,16.2-4.373,16.944s13.157-4.607,15.7-7.73a7.3,7.3,0,0,0-11.322-9.214Z" transform="translate(-447.155 -1259.959)" fill="#3fa82a"/>
          </g>
          <g id="Group_216" data-name="Group 216" transform="translate(258.57 468.888)">
            <g id="Group_214" data-name="Group 214" transform="translate(12.683 12.832)">
              <path id="Path_262" data-name="Path 262" d="M694.7,1312.788l.9-.156c3.514-45.328,17.335-77.851,17.53-78.28l-.82-.351C712.152,1234.429,698.214,1267.186,694.7,1312.788Z" transform="translate(-694.7 -1234)" fill="#3fa82a"/>
            </g>
            <g id="Group_215" data-name="Group 215" transform="translate(15.609)">
              <path id="Path_263" data-name="Path 263" d="M749.829,1211.094c-1.718,1.952-9.682,5.036-10.268,4.568-.547-.469,1.523-8.785,3.241-10.737a4.675,4.675,0,1,1,7.028,6.169Z" transform="translate(-724.917 -1202.478)" fill="#fff"/>
              <path id="Path_264" data-name="Path 264" d="M721.453,1202.994c1.523,2.069,2.928,10.542,2.343,10.971s-8.316-3.319-9.839-5.388a4.673,4.673,0,0,1,7.5-5.583Z" transform="translate(-708.801 -1201.133)" fill="#fff"/>
              <path id="Path_265" data-name="Path 265" d="M705.671,1228.774c2.5-.664,10.893,1.132,11.049,1.835.2.7-6.13,6.52-8.628,7.184a4.669,4.669,0,1,1-2.421-9.019Z" transform="translate(-702.194 -1217.894)" fill="#fff"/>
              <path id="Path_266" data-name="Path 266" d="M725.569,1242.582c.234-2.577,4.88-9.761,5.622-9.683s3.9,8.043,3.67,10.62a4.689,4.689,0,0,1-5.115,4.217A4.77,4.77,0,0,1,725.569,1242.582Z" transform="translate(-716.431 -1220.496)" fill="#fff"/>
              <path id="Path_267" data-name="Path 267" d="M747.449,1241.814c-2.264-1.21-7.184-8.238-6.871-8.863.351-.664,8.9-.586,11.205.625a4.654,4.654,0,1,1-4.334,8.238Z" transform="translate(-725.583 -1220.275)" fill="#fff"/>
              <path id="Path_268" data-name="Path 268" d="M739.722,1230.865a1.541,1.541,0,1,0-1.288,1.757A1.521,1.521,0,0,0,739.722,1230.865Z" transform="translate(-723.205 -1218.462)" fill="#caad8e"/>
            </g>
            <path id="Path_269" data-name="Path 269" d="M675.171,1312.914c2.538,3.123,5.271,16.2,4.373,16.944s-13.157-4.607-15.7-7.73a7.3,7.3,0,0,1,11.322-9.214Z" transform="translate(-662.214 -1267.637)" fill="#3fa82a"/>
          </g>
          <g id="Group_218" data-name="Group 218" transform="translate(775.921 531.084)">
            <path id="Path_270" data-name="Path 270" d="M1992.187,1375.961c4.1,1.8,18.936.9,19.443-.273s-8.823-12.728-12.923-14.563a8.1,8.1,0,1,0-6.52,14.836Z" transform="translate(-1987.311 -1360.437)" fill="#3fa82a"/>
            <path id="Path_271" data-name="Path 271" d="M2089.852,1415.568c-2.46,3.748-3.943,18.545-2.889,19.248s14.016-6.637,16.437-10.385a8.095,8.095,0,1,0-13.548-8.863Z" transform="translate(-2047.846 -1391.805)" fill="#3fa82a"/>
            <path id="Path_272" data-name="Path 272" d="M2033.14,1469.387c4.217,1.484,18.936-.547,19.365-1.757s-9.761-12.025-13.977-13.548a8.113,8.113,0,0,0-5.388,15.3Z" transform="translate(-2011.944 -1417.24)" fill="#3fa82a"/>
            <g id="Group_217" data-name="Group 217" transform="translate(23.851 14.939)">
              <path id="Path_273" data-name="Path 273" d="M2066.867,1450.939c0-.351-.625-33.967-18.467-51.849l.39-.39c18,18.077,18.623,51.887,18.623,52.239Z" transform="translate(-2048.4 -1398.7)" fill="#3fa82a"/>
            </g>
          </g>
          <g id="Group_221" data-name="Group 221" transform="translate(818.12 519.085)">
            <g id="Group_219" data-name="Group 219" transform="translate(11.519 11.243)">
              <path id="Path_274" data-name="Path 274" d="M2141.024,1427.449l-.781-.117c-3.084-39.667-15.187-68.129-15.344-68.52l.7-.312C2125.759,1358.89,2137.979,1387.548,2141.024,1427.449Z" transform="translate(-2124.9 -1358.5)" fill="#3fa82a"/>
            </g>
            <g id="Group_220" data-name="Group 220">
              <path id="Path_275" data-name="Path 275" d="M2102.211,1338.368c1.483,1.679,8.472,4.412,8.979,3.982.469-.429-1.366-7.691-2.85-9.409a4.093,4.093,0,1,0-6.129,5.427Z" transform="translate(-2098.929 -1330.834)" fill="#fff"/>
              <path id="Path_276" data-name="Path 276" d="M2127.885,1331.341c-1.366,1.8-2.577,9.214-2.069,9.6s7.262-2.889,8.628-4.724a4.057,4.057,0,0,0-.82-5.7A4.1,4.1,0,0,0,2127.885,1331.341Z" transform="translate(-2113.867 -1329.702)" fill="#fff"/>
              <path id="Path_277" data-name="Path 277" d="M2136.777,1353.9c-2.186-.586-9.526.976-9.683,1.6s5.349,5.7,7.535,6.286a4.087,4.087,0,1,0,2.147-7.887Z" transform="translate(-2114.717 -1344.373)" fill="#fff"/>
              <path id="Path_278" data-name="Path 278" d="M2126.5,1365.971c-.234-2.265-4.295-8.55-4.919-8.472s-3.436,7.028-3.2,9.292a4.071,4.071,0,0,0,4.451,3.67A4.141,4.141,0,0,0,2126.5,1365.971Z" transform="translate(-2109.397 -1346.646)" fill="#fff"/>
              <path id="Path_279" data-name="Path 279" d="M2101.371,1365.3c1.991-1.054,6.286-7.184,6.013-7.77-.312-.586-7.809-.508-9.8.547a4.078,4.078,0,0,0,3.787,7.223Z" transform="translate(-2095.396 -1346.444)" fill="#fff"/>
              <path id="Path_280" data-name="Path 280" d="M2122.574,1355.806a1.342,1.342,0,1,1,1.132,1.523A1.35,1.35,0,0,1,2122.574,1355.806Z" transform="translate(-2111.952 -1344.914)" fill="#caad8e"/>
            </g>
            <path id="Path_281" data-name="Path 281" d="M2159.39,1427.51c-2.225,2.733-4.607,14.172-3.826,14.836.781.625,11.518-4.06,13.743-6.793a6.384,6.384,0,1,0-9.917-8.043Z" transform="translate(-2131.98 -1387.883)" fill="#3fa82a"/>
          </g>
          <path id="Path_282" data-name="Path 282" d="M2284.73,1561.148l-185.647-.078c.937-8.863,17.725-13.313,16.164-22.059-1.991-11.205-84.683-15.383-51.5-29.672,32.6-14.016,101.745-11.479,104.2-11.4h.078c12.1.937,105.337-5.583,116.542,11.205C2295.74,1525.932,2284.73,1561.148,2284.73,1561.148Z" transform="translate(-1253.201 -912.873)" fill="#3fa82a"/>
          <path id="Path_283" data-name="Path 283" d="M2392.9,1253.661c-17.647-.859-44.157-2.225-67.036-3.709-38.223-2.5-21.434-14.29-3.748-31.078,17.725-16.788-55.011-7.457-109.085-3.709s-135.165,1.835-106.274-21.552S2345.58,1143.6,2345.58,1143.6c.859.82,1.679,1.679,2.5,2.5,1.444,1.445,2.85,2.889,4.255,4.373a188.766,188.766,0,0,1,16.32,19.248c1.093,1.484,2.147,3.006,3.2,4.529,1.21,1.8,2.381,3.67,3.514,5.544a119.745,119.745,0,0,1,9.487,19.443C2390.635,1214.384,2393.758,1232.07,2392.9,1253.661Z" transform="translate(-1280.514 -697.174)" fill="#cbe8c6"/>
          <path id="Path_284" data-name="Path 284" d="M100.6,1046.875c-17.764,0-46.461.937-37.715,6.52s16.2,13.977-13.626,14.914c-29.477.937-46.383,2.421-46.773,2.46a320.376,320.376,0,0,1-2.225-52.942s27.642-7.887,44.391,0c16.788,7.887,28.813,1.562,41.893,9.917,13.04,8.394,40.565,9.331,46.148,13.977C138.28,1046.406,118.33,1046.875,100.6,1046.875Z" transform="translate(0.033 -618.37)" fill="#6dbd5d"/>
          <g id="Group_222" data-name="Group 222" transform="translate(730.858 583.647)">
            <path id="Path_285" data-name="Path 285" d="M1957.168,1531.6l1.328-22.215s-11.205-9.292-12.767-9.956c-1.6-.625-25.729-4.334-25.729-4.334l1.054,20.888,7.574,15.188Z" transform="translate(-1901.217 -1495.087)" fill="#dfcdbb"/>
            <path id="Path_286" data-name="Path 286" d="M1872.87,1530.842s-1.562-16.2-.742-17.959,16.007-18.35,18.506-17.8c2.5.508,16.4,5.7,18.819,7.652s8.082,17.3,7.965,18.858c-.078,1.6-.586,9.8-.586,9.8Z" transform="translate(-1871.891 -1495.066)" fill="#ece2d7"/>
          </g>
          <g id="Group_223" data-name="Group 223" transform="translate(707.681 604.71)">
            <path id="Path_287" data-name="Path 287" d="M1875.54,1569.662l.156-9.526a4.644,4.644,0,0,0-1.874-3.826c-2.577-1.952-6.95-5.193-7.809-5.505-.742-.273-8-1.132-13.353-1.757a4.676,4.676,0,0,0-5.193,5.075l.781,8.628a4.524,4.524,0,0,0,.547,1.835l4.178,7.574a4.712,4.712,0,0,0,4.217,2.421l13.743-.351A4.607,4.607,0,0,0,1875.54,1569.662Z" transform="translate(-1833.814 -1549.014)" fill="#dfcdbb"/>
            <path id="Path_288" data-name="Path 288" d="M1817.943,1575.354a4.646,4.646,0,0,1-4.763-4.139c-.429-3.553-.859-8.16-.547-8.941.547-1.328,15.149-13.2,17.022-12.884a40.977,40.977,0,0,1,10.112,4.295c1.835,1.366,6.442,12.455,6.442,13.626l-.039,2.772a4.617,4.617,0,0,1-4.529,4.568Z" transform="translate(-1812.526 -1549.24)" fill="#ece2d7"/>
          </g>
          <g id="Group_224" data-name="Group 224" transform="translate(364.211 550.411)">
            <path id="Path_289" data-name="Path 289" d="M932.953,1427.414l-.156-8.082a3.957,3.957,0,0,1,1.562-3.241,71.035,71.035,0,0,1,6.6-4.646c.625-.234,6.793-.976,11.283-1.484a3.947,3.947,0,0,1,4.373,4.295l-.664,7.3a3.8,3.8,0,0,1-.469,1.562l-3.514,6.4a3.913,3.913,0,0,1-3.553,2.03l-11.635-.273A3.918,3.918,0,0,1,932.953,1427.414Z" transform="translate(-932.795 -1409.938)" fill="#dfcdbb"/>
            <path id="Path_290" data-name="Path 290" d="M974.594,1432.335a3.95,3.95,0,0,0,4.021-3.475c.351-3.006.742-6.871.469-7.574-.469-1.132-12.806-11.127-14.407-10.893a34.928,34.928,0,0,0-8.55,3.631c-1.562,1.171-5.466,10.542-5.427,11.518l.039,2.343a3.918,3.918,0,0,0,3.826,3.865Z" transform="translate(-943.709 -1410.213)" fill="#ece2d7"/>
          </g>
          <g id="Group_225" data-name="Group 225" transform="translate(331.3 564.32)">
            <path id="Path_291" data-name="Path 291" d="M848.578,1455.065l-.078-4.373a2.2,2.2,0,0,1,.859-1.757,40.137,40.137,0,0,1,3.592-2.538c.351-.117,3.67-.508,6.13-.82a2.148,2.148,0,0,1,2.382,2.343l-.351,3.982a2.215,2.215,0,0,1-.273.859l-1.913,3.475a2.107,2.107,0,0,1-1.952,1.093l-6.325-.156A2.117,2.117,0,0,1,848.578,1455.065Z" transform="translate(-848.5 -1445.563)" fill="#dfcdbb"/>
            <path id="Path_292" data-name="Path 292" d="M871.1,1457.644a2.106,2.106,0,0,0,2.186-1.913,19.164,19.164,0,0,0,.234-4.1c-.273-.625-6.989-6.052-7.808-5.934a19.006,19.006,0,0,0-4.646,1.952c-.859.625-2.967,5.739-2.967,6.286l.039,1.288a2.171,2.171,0,0,0,2.069,2.108Z" transform="translate(-854.352 -1445.644)" fill="#ece2d7"/>
          </g>
          <g id="Group_226" data-name="Group 226" transform="translate(659.062 578.57)">
            <path id="Path_293" data-name="Path 293" d="M1688.078,1491.565l-.078-4.373a2.2,2.2,0,0,1,.859-1.757,40.206,40.206,0,0,1,3.592-2.538c.351-.117,3.67-.508,6.13-.82a2.148,2.148,0,0,1,2.382,2.343l-.352,3.982a2.215,2.215,0,0,1-.273.859l-1.913,3.475a2.107,2.107,0,0,1-1.952,1.093l-6.325-.156A2.117,2.117,0,0,1,1688.078,1491.565Z" transform="translate(-1688 -1482.063)" fill="#dfcdbb"/>
            <path id="Path_294" data-name="Path 294" d="M1710.7,1494.244a2.131,2.131,0,0,0,2.186-1.913,19.169,19.169,0,0,0,.234-4.1c-.273-.625-6.989-6.052-7.809-5.935a19.016,19.016,0,0,0-4.646,1.952c-.859.625-2.967,5.739-2.967,6.286l.039,1.288a2.172,2.172,0,0,0,2.069,2.108Z" transform="translate(-1693.913 -1482.205)" fill="#ece2d7"/>
          </g>
          <g id="Group_227" data-name="Group 227" transform="translate(243.103 624.836)">
            <path id="Path_295" data-name="Path 295" d="M622.678,1610.065l-.078-4.373a2.2,2.2,0,0,1,.859-1.757,40.179,40.179,0,0,1,3.592-2.538c.351-.117,3.67-.508,6.13-.82a2.148,2.148,0,0,1,2.382,2.343l-.351,3.982a2.215,2.215,0,0,1-.273.859l-1.913,3.475a2.107,2.107,0,0,1-1.952,1.093l-6.325-.156A2.143,2.143,0,0,1,622.678,1610.065Z" transform="translate(-622.6 -1600.563)" fill="#dfcdbb"/>
            <path id="Path_296" data-name="Path 296" d="M645.3,1612.644a2.131,2.131,0,0,0,2.186-1.913,19.167,19.167,0,0,0,.234-4.1c-.273-.625-6.989-6.052-7.809-5.934a19.012,19.012,0,0,0-4.646,1.952c-.859.625-2.967,5.739-2.967,6.286l.039,1.289a2.171,2.171,0,0,0,2.069,2.108Z" transform="translate(-628.513 -1600.644)" fill="#ece2d7"/>
          </g>
          <g id="Group_228" data-name="Group 228" transform="translate(344.263 554.445)">
            <path id="Path_297" data-name="Path 297" d="M881.739,1426.841l-.039-3.045a1.463,1.463,0,0,1,.586-1.21,22.632,22.632,0,0,1,2.5-1.757c.234-.078,2.577-.351,4.295-.547a1.51,1.51,0,0,1,1.679,1.64l-.234,2.772a1.161,1.161,0,0,1-.2.586L889,1427.7a1.5,1.5,0,0,1-1.367.781l-4.412-.117A1.6,1.6,0,0,1,881.739,1426.841Z" transform="translate(-881.7 -1420.27)" fill="#dfcdbb"/>
            <path id="Path_298" data-name="Path 298" d="M897.4,1428.614a1.462,1.462,0,0,0,1.523-1.328,13.9,13.9,0,0,0,.156-2.85c-.2-.429-4.841-4.217-5.466-4.138a12.786,12.786,0,0,0-3.241,1.366c-.586.429-2.069,3.982-2.069,4.373v.9a1.529,1.529,0,0,0,1.445,1.484Z" transform="translate(-885.723 -1420.286)" fill="#ece2d7"/>
          </g>
        </g>
      </g>
      <text id="_404" data-name="404" transform="translate(960 778)" fill="#323232" font-size="380" font-family="ProductSans-Bold, Product Sans" font-weight="700"><tspan x="-359.86" y="0">404</tspan></text>
      <text id="Oops.._" data-name="Oops..!" transform="translate(959 444)" fill="#323232" font-size="86" font-family="ProductSans-Bold, Product Sans" font-weight="700"><tspan x="-155.144" y="0">OOPS..!</tspan></text>
      <text id="Page_Not_Found" data-name="Page Not Found" transform="translate(958 963)" fill="#323232" font-size="62" font-family="ProductSans-Bold, Product Sans" font-weight="700"><tspan x="-267.065" y="0">PAGE NOT FOUND</tspan></text>
    </g>
  </g>
</svg>
