<?xml version="1.0" encoding="utf-8"?>
<!-- Generator: Adobe Illustrator 22.0.1, SVG Export Plug-In . SVG Version: 6.00 Build 0)  -->
<svg version="1.1" id="Capa_1" xmlns="http://www.w3.org/2000/svg" xmlns:xlink="http://www.w3.org/1999/xlink" x="0px" y="0px"
	 viewBox="0 0 985.3 985.3" style="enable-background:new 0 0 985.3 985.3;" xml:space="preserve">
<style type="text/css">
	.st0{fill:#FFFFFF;}
</style>
<g>
	<path class="st0" d="M952,448.8L940.2,431c-3.8-5.7-11.4-7.1-17.9-4.7c-21.6,7.8-46.6,0.2-60-19.8c-13.4-20-10.7-46,4.9-63
		c4.6-5,6.3-12.7,2.5-18.2l-8.7-13.1l-3.3-4.8c-3.8-5.7-11.5-7.1-17.9-4.7c-21.6,7.8-46.6,0.2-60-19.8c-13.4-20-10.7-46,4.9-63
		c4.6-5,6.3-12.7,2.5-18.2l-11.9-17.8c-3.8-5.7-11.5-7.1-17.9-4.7c-21.6,7.8-46.6,0.2-60-19.8c-13.4-20-10.7-46,4.9-63
		c4.6-5,6.3-12.7,2.5-18.2l-13.1-19.8c-3.8-5.7-11.5-7.2-17.1-3.4c0,0-663.8,442-664.3,442.6c-4.1,4.1-4.8,10.6-1.6,15.6L22,532.7
		c3.8,5.7,11.5,7.1,17.9,4.7c21.6-7.8,46.6-0.2,60,19.8c13.4,20,10.7,46-4.9,63c-4.6,5-6.3,12.7-2.6,18.2l11.9,17.8
		c3.8,5.7,11.5,7.1,17.9,4.7c21.6-7.8,46.6-0.2,60,19.8c13.4,20,10.7,46-4.9,63c-4.6,5-6.3,12.7-2.5,18.2l11.9,17.8
		c3.8,5.7,11.5,7.1,17.9,4.7c21.6-7.8,46.6-0.2,60,19.8c13.4,20,10.7,46-4.9,63c-4.6,5-6.3,12.7-2.5,18.2l11.9,17.8
		c3.7,5.7,11.3,7.1,17.7,4.7c0.4-0.1,68.7-45.5,161.3-107.1c-20.7-38.8-32.5-83.2-32.5-130.2c0-145,111.8-264.4,253.7-276.5
		l-6.2-9.3l-86.2-129.5c-7.6-11.5-4.5-27,6.9-34.7c11.4-7.6,27-4.5,34.6,6.9l92.8,139.5l19,28.5c71.2,9.6,133.9,46.2,177.4,99.2
		c26.3-17.5,41.8-27.9,42-28.1C954.1,462.1,955.8,454.4,952,448.8z M382.5,739.6c-1.1,1.1-2.5,2.2-3.8,3.1c-0.6,0.4-1.2,0.8-1.8,1.1
		c-11.3,6.2-25.6,2.8-32.8-8.1l-10.6-15.8l-27.4-41.1L194,510.5c-7.6-11.5-4.5-27,6.9-34.6c11.5-7.6,27-4.5,34.6,6.9l32,48.2
		l36.3,54.6l29.3,44l52.4,78.6C392.4,718.2,390.8,731.3,382.5,739.6z"/>
	<path class="st0" d="M764.5,447.6c-21.3-6.8-43.9-10.7-67.4-11.1c-1.4,0-2.8,0-4.1,0c-129.3,0-234.5,105.2-234.5,234.5
		c0,38.2,9.2,74.3,25.5,106.2c38.8,76.1,117.9,128.3,209,128.3c129.3,0,234.5-105.2,234.5-234.5c0-57.9-21.1-110.9-56-151.9
		C843.5,486.2,806.6,461.2,764.5,447.6z M805,713.8h-69.2V783c0,23.6-19.2,42.8-42.8,42.8s-42.8-19.2-42.8-42.8v-69.2H581
		c-0.6,0-1.2,0-1.7,0c-22.8-0.9-41.1-19.8-41.1-42.8c0-23.6,19.2-42.8,42.8-42.8h69.2V559c0-23.6,19.2-42.8,42.8-42.8
		s42.8,19.2,42.8,42.8v50.6v18.6H805c23.6,0,42.8,19.2,42.8,42.8S828.6,713.8,805,713.8z"/>
</g>
</svg>
