<!-- Generator: Adobe Illustrator 22.0.1, SVG Export Plug-In  -->
<svg version="1.1"
	 xmlns="http://www.w3.org/2000/svg" xmlns:xlink="http://www.w3.org/1999/xlink" xmlns:a="http://ns.adobe.com/AdobeSVGViewerExtensions/3.0/"
	 x="0px" y="0px" width="428.9px" height="76.1px" viewBox="0 0 428.9 76.1" style="enable-background:new 0 0 428.9 76.1;"
	 xml:space="preserve">
<style type="text/css">
	.st0{fill:#3DBC41;}
</style>
<defs>
</defs>
<g>
	<g>
		<path d="M171.5,40.9h10.6v11.9h9.9V40.9h10.6v34.4H192V61.6h-9.9v13.6h-10.6V40.9z"/>
		<path d="M208,40.9h10.6v34.4H208V40.9z"/>
		<path d="M224.4,40.9H235v11.9h0.1l9.4-11.9h13.1l-12.5,13.4l14.5,21h-13.2l-8.5-13.4l-2.9,3.2v10.2h-10.6V40.9z"/>
		<path d="M261.6,40.9h10.6v34.4h-10.6V40.9z"/>
		<path d="M277.6,40.9h10.8l10,18.4h0.1V40.9h10v34.4h-10.3l-10.5-18.8h-0.1v18.8h-10V40.9z"/>
		<path d="M339.4,71.8c-2.4,3-6,4.3-9.8,4.3c-10.2,0-16.4-7.9-16.4-17.7c0-13.1,9.2-18.4,17-18.4c8.8,0,14.3,4.8,15.8,12.9h-10.2
			c-0.4-2.5-2.5-4.3-5-4.3c-7.3,0-7,7.7-7,10c0,3.2,1.3,8.9,7.8,8.9c2.5,0,5-1.3,5.5-3.8h-4.7v-7.4h14.1v18.9h-6.7L339.4,71.8z"/>
		<path d="M351.6,40.9h10.6v34.4h-10.6V40.9z"/>
		<path d="M367.7,40.9h26.6v8.8h-16V54H392v8.2h-13.7v13.1h-10.6V40.9z"/>
		<path d="M405.9,62.6l-12.1-21.7h11.7l5.7,12.7l6-12.7h11.6l-12.3,21.7v12.7h-10.6V62.6z"/>
	</g>
	<g>
		<path d="M74.3,75.8h6.1 M61.6,75.8h6.6 M51.8,75.8h6.5 M41.4,75.8h7.9 M29.1,75.8h6.5 M19.1,75.8h6.5 M9.4,75.8h6.5 M146.6,75.8
			h3.9c-2.3-3.6-4.9-7.9-6-10.3c-2.2-4.8-12.1-9.4-15.8-12.6c-3.7-3.2-4.5-7.1-7.7-9.5c-0.9-0.7-1.8-1-2.7-1
			c-2.3-0.1-4.5,1.5-6.9,2.2c-3.3,1-7.2,6.4-7.2,6.4s-4.8-4.4-8.6-9.7c-3.8-5.2-6-9.5-8.3-11.2s-8.9-8.2-9.5-9.8
			c-0.4-1-1.6-1.6-2.7-1.7c-0.8,0-1.6,0.3-1.9,1.1c-0.7,1.9-4.2,7.2-6.7,8.5c-2.5,1.4-5.9,9.2-9.3,9.8c-0.8,0.2-1.5,0.2-2.1,0.2
			c-2.1-0.1-3.5-0.9-5.3-1.1c-0.2,0-0.4,0-0.6,0c-1.7,0-1,0.8-1.6,2.7c-0.6,2.1-6.7,4.5-9.4,7.8c-2.7,3.4-6.2,2.8-8.4,4.2
			c-0.5,0.3-1,0.4-1.4,0.4c-1.4,0-2.1-1.6-2.1-1.6s-2.3,2.7-4.1,4.7c-1.8,2-4.5,6.8-6.3,6.8s-2.1,5.2-3.9,5.2c-1.8,0-1.6,3.5-4,4.4
			c-0.4,0.1-0.7,0.2-1,0.2c-1.1,0-2-0.9-2.7-0.9c-0.5,0-0.9,0.3-1.3,1.2c-0.7,1.5-2,2.7-3.2,3.5h3.3 M116.4,75.8h23.1 M106.6,75.8
			h6.5 M93.5,75.3 M28.8,68.9c-1.8,0.5-3.6,1.2-5.4,1.8l-0.3-1.9l-1,1.4c0.1-1.2,0.3-2.3,0.4-3.5c-1.3,2-2.9,4.6-4.3,6.6
			c-1-0.2-2-0.4-3.1-0.5l1.7-0.5L13.1,72c0.2-0.3,0.3-0.7,0.5-0.9c2.2-0.8,3.3-3.3,3.8-4.8c0.1-0.1,0.1-0.3,0.2-0.5
			c2.3-0.8,4.1-3.3,5.8-5.7c0.3-0.4,0.6-0.8,0.8-1.1c-0.9,1.7-1.9,3.3-1.9,3.3s1.5-1.2,3-2.5c0.6-0.6,1.2-1.2,1.6-1.7
			c0.9,2.4,2.3,4.5,4.1,6.3C30.4,65.9,29.6,67.3,28.8,68.9z M55.1,58.1L49.6,64l4-2.4c-1.4,1.9-3.5,3.4-5.2,5.1
			c0.1,1.2,0,2.6,0.1,3.8c-1.9,0.6-3.9,1.2-5.8,1.8l-3.8-4.7l1.2,4c-1.3-1.6-2.6-3.2-3.8-4.9c-0.3,0.9-1.1,1.8-1.4,2.7
			c-0.3-3.8-0.7-7.4-1-11.2c-1.2-0.8-2.8-1.4-4.3-2.1c0.7-0.2,1.5-0.4,2.2-0.9c0.3-0.2,1.1-0.4,1.8-0.6c2-0.5,5-1.3,7.5-4.4
			c1-1.2,2.9-2.5,4.6-3.6c1.1-0.7,2.1-1.4,2.9-2.1c-1.5,2-3.3,3.8-3.3,3.8s2.3-1.2,4.4-2.9c0.8-0.6,1.5-1.3,2.2-1.9
			c1.4,3,2.9,5.9,4.5,8.7C55.8,54.1,55.5,56.1,55.1,58.1z M80.8,67.5l3.5-6.7l-7.5,9c-1-0.9-2-1.7-3-2.6c-1.2,0.8-2.6,1.7-3.9,2.4
			l0.7-5.7l-2.1,4.4c0.5-3.2,1-6.4,1.5-9.6c-0.9-0.6-1.8-1.2-2.8-1.9l2.5,0.9L64,53c0.3-1.3,0.5-2.5,0.7-3.7
			c-1.9-1.1-3.8-2.3-5.7-3.4l4.5,1.3L57,42.6c0.1-0.2,0.1-0.4,0.2-0.7c0.2,0,0.4,0,0.6-0.1c3.4-0.6,5.8-4.1,8-7.2
			c0.8-1.1,1.9-2.6,2.4-3c2-1.1,4.1-3.5,5.7-5.8l2.2,12l0-8.7c0.6,4.2,1.3,8.4,1.9,12.5c1.8,1.3,3.4,2.5,5.1,3.8l-3.3-1.1l4.3,4.3
			c-0.2,2.5-0.4,5-0.6,7.4c1.1,1.4,1.9,2.8,3,4.2C84.7,62.6,82.7,65,80.8,67.5z M91.3,54.7l-0.1-7.9l-1.5,5.3c0.1-2.3,0.1-4.7,0.2-7
			c-1.5-2.7-3-5.5-4.4-8.2c0.1-0.4,0.2-0.8,0.2-1.2l2.9,2.8l-0.8-2.4c0.5,0.8,1.1,1.6,1.7,2.5c1,1.5,2.1,3.2,3.4,5
			c3.5,4.9,7.8,9,8.9,10c0.5,1.2,1,2.4,1.5,3.7C99.3,56.5,95.2,55.5,91.3,54.7z M130.8,71.7c-2.8,0.6-5.7,1.3-8.5,1.9l-5.6,0.1
			c-0.7-0.9-1.3-1.8-1.9-2.8c-0.8,0.8-2.2,1.9-3,2.6c-0.4-2.6-1.2-5.4-1.6-7.9c-1.2,1-2.6,1.6-3.8,2.6c0.3-2.3,0.6-4.9,0.8-7.4
			c1.3-0.9,2.5-1.7,2.5-1.7l-0.2-5.4l1.1,4.5l0.4-9c0.6-0.5,1.1-0.8,1.5-1c1-0.3,2-0.7,2.9-1.1c0.7-0.3,1.3-0.6,1.9-0.8
			c-0.2,3.3-0.3,6.5-0.5,9.8c1.6,0.2,3.1,0.6,4.7,0.9l3,5.7l-0.3-3.4c1,2,2,4,3,6c2.7,1.1,5.5,2.3,8.2,3.5l-14.5,3.9L130.8,71.7z"/>
		<path class="st0" d="M120.8,72.7l9.9-1.1c-2.8,0.6-5.7,1.3-8.5,1.9l-5.6,0.1c-0.7-0.9-1.3-1.8-1.9-2.8c-0.8,0.8-2.2,1.9-3,2.6
			c-0.4-2.6-1.2-5.4-1.6-7.9c-1.2,1-2.6,1.6-3.8,2.6c0.3-2.3,0.6-4.9,0.8-7.4c1.3-0.9,2.5-1.7,2.5-1.7l-0.2-5.4l1.1,4.5l0.4-9
			c0.6-0.5,1.1-0.8,1.5-1c1-0.3,2-0.7,2.9-1.1c0.7-0.3,1.3-0.6,1.9-0.8c-0.2,3.3-0.3,6.5-0.5,9.8c1.6,0.2,3.1,0.6,4.7,0.9l3,5.7
			l-0.3-3.4c1,2,2,4,3,6c2.7,1.1,5.5,2.3,8.2,3.5L120.8,72.7z"/>
		<path class="st0" d="M103.2,57.4c-4-0.9-8-1.8-11.9-2.7l-0.1-7.9l-1.5,5.3c0.1-2.3,0.1-4.7,0.2-7c-1.5-2.7-3-5.5-4.4-8.2
			c0.1-0.4,0.2-0.8,0.2-1.2l2.9,2.8l-0.8-2.4c0.5,0.8,1.1,1.6,1.7,2.5c1,1.5,2.1,3.2,3.4,5c3.5,4.9,7.8,9,8.9,10
			C102.3,54.9,102.8,56.1,103.2,57.4z"/>
		<path class="st0" d="M31.2,64.3c-0.8,1.6-1.6,3-2.4,4.5c-1.8,0.5-3.6,1.2-5.4,1.8l-0.3-1.9l-1,1.4c0.1-1.2,0.3-2.3,0.4-3.5
			c-1.3,2-2.9,4.6-4.3,6.6c-1-0.2-2-0.4-3.1-0.5l1.7-0.5L13.1,72c0.2-0.3,0.3-0.7,0.5-0.9c2.2-0.8,3.3-3.3,3.8-4.8
			c0.1-0.1,0.1-0.3,0.2-0.5c2.3-0.8,4.1-3.3,5.8-5.7c0.3-0.4,0.6-0.8,0.8-1.1c-0.9,1.7-1.9,3.3-1.9,3.3s1.5-1.2,3-2.5
			c0.6-0.6,1.2-1.2,1.6-1.7C28,60.5,29.4,62.6,31.2,64.3z"/>
		<path class="st0" d="M55.1,58.1L49.6,64l4-2.4c-1.4,1.9-3.5,3.4-5.2,5.1c0.1,1.2,0,2.6,0.1,3.8c-1.9,0.6-3.9,1.2-5.8,1.8l-3.8-4.7
			l1.2,4c-1.3-1.6-2.6-3.2-3.8-4.9c-0.3,0.9-1.1,1.8-1.4,2.7c-0.3-3.8-0.7-7.4-1-11.2c-1.2-0.8-2.8-1.4-4.3-2.1
			c0.7-0.2,1.5-0.4,2.2-0.9c0.3-0.2,1.1-0.4,1.8-0.6c2-0.5,5-1.3,7.5-4.4c1-1.2,2.9-2.5,4.6-3.6c1.1-0.7,2.1-1.4,2.9-2.1
			c-1.5,2-3.3,3.8-3.3,3.8s2.3-1.2,4.4-2.9c0.8-0.6,1.5-1.3,2.2-1.9c1.4,3,2.9,5.9,4.5,8.7C55.8,54.1,55.5,56.1,55.1,58.1z"/>
		<path class="st0" d="M80.8,67.5l3.5-6.7l-7.5,9c-1-0.9-2-1.7-3-2.6c-1.2,0.8-2.6,1.7-3.9,2.4l0.7-5.7l-2.1,4.4
			c0.5-3.2,1-6.4,1.5-9.6c-0.9-0.6-1.8-1.2-2.8-1.9l2.5,0.9L64,53c0.3-1.3,0.5-2.5,0.7-3.7c-1.9-1.1-3.8-2.3-5.7-3.4l4.5,1.3
			L57,42.6c0.1-0.2,0.1-0.4,0.2-0.7c0.2,0,0.4,0,0.6-0.1c3.4-0.6,5.8-4.1,8-7.2c0.8-1.1,1.9-2.6,2.4-3c2-1.1,4.1-3.5,5.7-5.8l2.2,12
			l0-8.7c0.6,4.2,1.3,8.4,1.9,12.5c1.8,1.3,3.4,2.5,5.1,3.8l-3.3-1.1l4.3,4.3c-0.2,2.5-0.4,5-0.6,7.4c1.1,1.4,1.9,2.8,3,4.2
			C84.7,62.6,82.7,65,80.8,67.5z"/>
		<g>
			<g>
				<path d="M6.7,39c0,0,0.4-0.4,1.2-1.3c0.4-0.4,0.8-0.9,1.4-1.5c0.3-0.3,0.6-0.6,0.9-1c0.3-0.3,0.7-0.7,1.1-1
					c0.8-0.7,1.6-1.5,2.5-2.4c1-0.8,2-1.7,3.1-2.7c1.1-0.9,2.4-1.9,3.7-2.9c0.6-0.5,1.3-1,2.1-1.5c0.7-0.5,1.5-1,2.2-1.5
					c1.5-1,3.1-1.9,4.8-2.9c0.9-0.5,1.7-0.9,2.6-1.4c0.9-0.5,1.8-1,2.8-1.4c3.7-1.8,7.8-3.4,12.2-4.8c4.4-1.3,8.9-2.5,13.7-3.2
					c4.7-0.7,9.6-1.1,14.4-1.1C80.1,8.6,85,9,89.7,9.7c4.7,0.7,9.3,1.9,13.7,3.2c4.3,1.4,8.4,3,12.2,4.8c1,0.4,1.9,0.9,2.7,1.4
					c0.9,0.5,1.8,0.9,2.6,1.4c1.7,1,3.3,2,4.8,2.9c0.7,0.5,1.5,1,2.2,1.5c0.7,0.5,1.4,0.9,2.1,1.5c1.3,1,2.6,1.9,3.7,2.9
					c1.1,0.9,2.2,1.8,3.1,2.7c0.9,0.9,1.8,1.7,2.5,2.4c0.4,0.4,0.7,0.7,1.1,1c0.3,0.3,0.6,0.7,0.9,1c0.6,0.6,1,1.1,1.4,1.5
					c0.8,0.8,1.2,1.3,1.2,1.3s-0.5-0.4-1.3-1.1c-0.9-0.7-2.1-1.8-3.7-3c-0.8-0.6-1.7-1.3-2.7-2.1c-1-0.7-2.1-1.5-3.3-2.3
					c-2.4-1.6-5.1-3.3-8.2-5.1c-1.5-0.9-3.2-1.7-4.9-2.5c-0.9-0.4-1.7-0.8-2.6-1.2c-0.9-0.4-1.8-0.8-2.7-1.2
					c-0.9-0.4-1.9-0.8-2.8-1.1c-1-0.4-2-0.7-3-1c-2-0.7-4.1-1.3-6.2-2c-4.2-1.1-8.7-2-13.2-2.7c-4.6-0.6-9.2-0.9-13.9-0.9
					c-4.7,0-9.3,0.3-13.9,0.9c-4.5,0.7-9,1.6-13.2,2.7c-2.1,0.7-4.2,1.2-6.2,2c-1,0.4-2,0.7-3,1c-1,0.4-1.9,0.8-2.8,1.1
					c-1.9,0.7-3.6,1.6-5.4,2.4c-1.7,0.9-3.3,1.7-4.9,2.5c-3.1,1.7-5.8,3.4-8.2,5.1c-1.2,0.8-2.3,1.6-3.3,2.3c-1,0.8-1.9,1.5-2.7,2.1
					c-1.7,1.2-2.9,2.4-3.8,3.1C7.2,38.6,6.7,39,6.7,39z"/>
			</g>
		</g>
		<g>
			<g>
				<path d="M19.1,17.7c0,0,0.3-0.3,1-0.7c0.3-0.2,0.7-0.5,1.1-0.9c0.2-0.2,0.5-0.4,0.7-0.6c0.3-0.2,0.6-0.4,0.9-0.6
					c0.6-0.4,1.3-0.9,2.1-1.4c0.8-0.5,1.6-1,2.6-1.5c0.9-0.6,2-1.1,3-1.7c0.5-0.3,1.1-0.6,1.7-0.8c0.6-0.3,1.2-0.6,1.8-0.9
					c1.2-0.6,2.6-1.1,3.9-1.7c0.7-0.3,1.4-0.5,2.2-0.8c0.7-0.3,1.5-0.6,2.3-0.8c3.1-1.1,6.4-2,10-2.8c3.6-0.8,7.3-1.4,11.2-1.8
					C67.3,0.3,71.3,0,75.3,0c4,0,8,0.3,11.8,0.7c3.9,0.4,7.6,1.1,11.2,1.8c3.5,0.8,6.9,1.7,10,2.8c0.8,0.2,1.5,0.5,2.3,0.8
					c0.7,0.3,1.4,0.5,2.2,0.8c1.4,0.6,2.7,1.1,3.9,1.7c0.6,0.3,1.2,0.6,1.8,0.9c0.6,0.3,1.2,0.5,1.7,0.8c1.1,0.6,2.1,1.1,3,1.7
					c0.9,0.6,1.8,1.1,2.6,1.5c0.7,0.5,1.4,1,2.1,1.4c0.3,0.2,0.6,0.4,0.9,0.6c0.3,0.2,0.5,0.4,0.7,0.6c0.5,0.3,0.8,0.6,1.1,0.9
					c0.6,0.5,1,0.7,1,0.7s-0.4-0.2-1.1-0.6c-0.7-0.4-1.7-1-3.1-1.8c-0.7-0.4-1.4-0.8-2.2-1.2c-0.8-0.4-1.7-0.9-2.7-1.3
					c-2-0.9-4.2-1.9-6.7-2.9c-1.3-0.5-2.6-1-4-1.5c-0.7-0.2-1.4-0.5-2.2-0.7c-0.7-0.2-1.5-0.5-2.2-0.7c-0.8-0.2-1.5-0.4-2.3-0.7
					c-0.8-0.2-1.6-0.4-2.4-0.6c-1.6-0.4-3.3-0.8-5-1.1C94,3.8,90.4,3.3,86.6,2.9c-3.7-0.4-7.5-0.5-11.4-0.6c-3.8,0-7.6,0.2-11.4,0.5
					c-3.7,0.4-7.3,0.9-10.8,1.6c-1.7,0.4-3.4,0.7-5,1.1c-0.8,0.2-1.6,0.4-2.4,0.6c-0.8,0.2-1.6,0.4-2.3,0.7c-1.5,0.4-3,1-4.4,1.4
					c-1.4,0.5-2.7,1-4,1.5c-2.5,1-4.8,2-6.7,2.9c-1,0.5-1.9,0.9-2.7,1.3c-0.8,0.4-1.6,0.8-2.2,1.2c-1.4,0.7-2.4,1.4-3.1,1.8
					C19.5,17.5,19.1,17.7,19.1,17.7z"/>
			</g>
		</g>
	</g>
</g>
</svg>
