<svg xmlns="http://www.w3.org/2000/svg" width="109.58" height="55.143" viewBox="0 0 109.58 55.143"><path d="M384.985,130.752h4.439m-13.733,0H380.5m-11.943,0h4.7m-12.263,0h5.786m-14.716,0h4.694m-11.935,0h4.694m-11.812,0h4.7m95.192,0h2.875c-1.652-2.642-3.537-5.764-4.359-7.532-1.608-3.457-8.8-6.856-11.513-9.177s-3.275-5.189-5.6-6.936a3.314,3.314,0,0,0-1.936-.721c-1.637-.051-3.26,1.084-4.993,1.6-2.4.728-5.247,4.658-5.247,4.658a53.435,53.435,0,0,1-6.251-7.023c-2.744-3.806-4.367-6.9-6.048-8.129s-6.448-5.975-6.907-7.169a2.27,2.27,0,0,0-1.98-1.223,1.315,1.315,0,0,0-1.368.8c-.539,1.412-3.049,5.225-4.891,6.215s-4.33,6.666-6.8,7.139a6.792,6.792,0,0,1-1.514.131c-1.543-.051-2.554-.662-3.886-.808-.153-.015-.284-.022-.408-.029-1.2-.036-.713.568-1.135,1.965-.458,1.528-4.869,3.239-6.841,5.713s-4.5,2.016-6.1,3.078a1.715,1.715,0,0,1-.99.32c-.982-.029-1.528-1.15-1.528-1.15s-1.7,1.987-2.984,3.428-3.289,4.971-4.6,4.927-1.521,3.784-2.838,3.806-1.15,2.54-2.926,3.224a1.867,1.867,0,0,1-.713.124c-.822-.029-1.426-.619-1.965-.64-.335-.007-.64.2-.946.888a6.485,6.485,0,0,1-2.314,2.518h2.409m82.311,0h16.79m-23.9,0H413.2m-14.242-.357-47.087-4.65c-1.31.371-2.627.873-3.937,1.3l-.233-1.4L347,126.691c.1-.844.182-1.7.3-2.533-.968,1.426-2.125,3.34-3.093,4.774a15.853,15.853,0,0,0-2.242-.327l1.237-.371-2.751-.24c.138-.247.255-.48.349-.677,1.63-.575,2.365-2.409,2.787-3.471.044-.1.095-.233.146-.357,1.652-.582,2.969-2.394,4.25-4.156.2-.277.408-.56.6-.815-.619,1.252-1.346,2.409-1.346,2.409s1.121-.851,2.169-1.849c.437-.408.859-.837,1.2-1.2a13.16,13.16,0,0,0,2.991,4.556C353.014,123.569,352.446,124.61,351.871,125.745Zm19.111-7.882L367,122.172l2.94-1.747a32.888,32.888,0,0,1-3.748,3.719c.051.866-.007,1.921.044,2.787-1.4.451-2.831.873-4.258,1.3l-2.773-3.435.852,2.9c-.946-1.143-1.863-2.322-2.729-3.552-.218.648-.786,1.281-1,1.929-.24-2.744-.495-5.407-.728-8.151a25.885,25.885,0,0,0-3.115-1.528,4.364,4.364,0,0,0,1.579-.662,5.828,5.828,0,0,1,1.288-.429,9.313,9.313,0,0,0,5.429-3.217,15.717,15.717,0,0,1,3.311-2.605,26.1,26.1,0,0,0,2.147-1.521,23.672,23.672,0,0,1-2.4,2.758,21.586,21.586,0,0,0,3.173-2.111,19.391,19.391,0,0,0,1.587-1.4c1,2.169,2.1,4.287,3.289,6.332C371.536,115,371.3,116.415,370.983,117.863Zm18.689,6.848,2.547-4.883-5.429,6.579c-.713-.633-1.434-1.266-2.154-1.885a23.794,23.794,0,0,1-2.867,1.732l.488-4.134-1.536,3.2c.378-2.322.691-4.687,1.121-6.987-.655-.422-1.332-.9-2.016-1.361l1.848.655-4.177-3.479c.182-.91.371-1.827.539-2.707-1.368-.815-2.751-1.652-4.126-2.489l3.275.917-4.774-3.26c.044-.16.095-.32.138-.473.16-.022.313-.036.473-.065,2.445-.466,4.236-2.984,5.822-5.211a15.808,15.808,0,0,1,1.739-2.205,14.381,14.381,0,0,0,4.156-4.243l1.594,8.719-.015-6.324q.7,4.563,1.39,9.134c1.281.932,2.438,1.819,3.675,2.736l-2.373-.8,3.108,3.1c-.131,1.8-.262,3.646-.4,5.385.771,1.019,1.4,2.067,2.176,3.086C392.532,121.145,391.1,122.929,389.672,124.712Zm7.685-9.323-.095-5.749-1.113,3.872c.051-1.7.087-3.391.167-5.116-1.07-1.95-2.161-3.988-3.224-5.939.051-.284.109-.582.167-.873l2.1,2.067-.582-1.732c.393.56.815,1.194,1.259,1.856.713,1.084,1.528,2.307,2.474,3.617a55.61,55.61,0,0,0,6.448,7.278c.357.9.713,1.783,1.07,2.678C403.15,116.7,400.2,116.007,397.357,115.389Zm28.7,12.379-6.215,1.4-4.046.058c-.473-.67-.946-1.339-1.39-2.023-.6.568-1.594,1.354-2.191,1.921-.284-1.878-.866-3.894-1.15-5.771-.888.728-1.914,1.186-2.8,1.907.218-1.7.415-3.581.619-5.371.917-.633,1.812-1.237,1.812-1.237l-.167-3.908.837,3.282.284-6.586a3.66,3.66,0,0,1,1.128-.7,18.99,18.99,0,0,0,2.089-.808,12.076,12.076,0,0,1,1.39-.546c-.116,2.38-.226,4.76-.342,7.139,1.135.167,2.271.429,3.413.648l2.176,4.119-.24-2.46c.72,1.456,1.485,2.9,2.176,4.359,1.958.8,3.966,1.688,5.946,2.533l-10.567,2.824Z" transform="translate(-330.897 -75.609)"/><path d="M447.75,136.134l7.241-.779-6.215,1.4-4.046.058c-.473-.67-.946-1.339-1.39-2.023-.6.568-1.594,1.354-2.191,1.921-.284-1.878-.866-3.894-1.15-5.771-.888.728-1.914,1.186-2.8,1.907.218-1.7.415-3.581.619-5.371.917-.633,1.812-1.237,1.812-1.237l-.167-3.908.837,3.282.284-6.586a3.659,3.659,0,0,1,1.128-.7,19,19,0,0,0,2.089-.808,12.074,12.074,0,0,1,1.39-.546c-.116,2.38-.226,4.76-.342,7.139,1.135.167,2.271.429,3.413.648l2.176,4.119-.24-2.46c.72,1.456,1.485,2.9,2.176,4.359,1.958.8,3.966,1.688,5.946,2.533Z" transform="translate(-359.835 -83.196)" fill="#3dbc41"/><path d="M429.3,122.016c-2.882-.648-5.829-1.339-8.675-1.958l-.095-5.749-1.113,3.872c.051-1.7.087-3.391.167-5.116-1.07-1.95-2.161-3.988-3.224-5.939.051-.284.109-.582.167-.873l2.1,2.067-.582-1.732c.393.56.815,1.194,1.259,1.856.713,1.084,1.528,2.307,2.474,3.617a55.612,55.612,0,0,0,6.448,7.278C428.584,120.232,428.94,121.12,429.3,122.016Z" transform="translate(-354.162 -80.278)" fill="#3dbc41"/><path d="M357.161,133.2c-.575,1.135-1.143,2.176-1.717,3.311-1.31.371-2.627.873-3.937,1.3l-.233-1.4-.706,1.041c.1-.844.182-1.7.3-2.533-.968,1.426-2.125,3.34-3.093,4.774a15.858,15.858,0,0,0-2.242-.327l1.237-.371-2.751-.24c.138-.247.255-.48.349-.677,1.63-.575,2.365-2.409,2.787-3.471.044-.1.095-.233.146-.357,1.652-.582,2.969-2.394,4.25-4.156.2-.277.408-.56.6-.815-.619,1.252-1.346,2.409-1.346,2.409s1.121-.851,2.169-1.849c.437-.408.859-.837,1.2-1.2A13.159,13.159,0,0,0,357.161,133.2Z" transform="translate(-334.469 -86.373)" fill="#3dbc41"/><path d="M379.057,124.637l-3.981,4.308,2.94-1.747a32.888,32.888,0,0,1-3.748,3.719c.051.866-.007,1.921.044,2.787-1.4.451-2.831.873-4.257,1.3l-2.773-3.435.851,2.9c-.946-1.143-1.863-2.322-2.729-3.552-.218.648-.786,1.281-1,1.929-.24-2.744-.495-5.407-.728-8.151a25.889,25.889,0,0,0-3.115-1.528,4.364,4.364,0,0,0,1.579-.662,5.827,5.827,0,0,1,1.288-.429,9.313,9.313,0,0,0,5.429-3.217,15.716,15.716,0,0,1,3.311-2.605,26.1,26.1,0,0,0,2.147-1.521,23.671,23.671,0,0,1-2.4,2.758,21.586,21.586,0,0,0,3.173-2.111,19.384,19.384,0,0,0,1.587-1.4c1,2.169,2.1,4.287,3.29,6.332C379.61,121.776,379.37,123.188,379.057,124.637Z" transform="translate(-338.971 -82.382)" fill="#3dbc41"/><path d="M405.2,126.7l2.547-4.883-5.429,6.579c-.713-.633-1.434-1.266-2.154-1.885a23.794,23.794,0,0,1-2.867,1.732l.488-4.134-1.536,3.2c.378-2.322.691-4.687,1.121-6.987-.655-.422-1.332-.9-2.016-1.361l1.849.655-4.177-3.479c.182-.91.371-1.827.539-2.707-1.368-.815-2.751-1.652-4.126-2.489l3.275.917-4.774-3.26c.044-.16.095-.32.138-.473.16-.022.313-.036.473-.065,2.445-.466,4.236-2.984,5.822-5.211a15.813,15.813,0,0,1,1.739-2.205,14.38,14.38,0,0,0,4.156-4.243l1.594,8.719-.015-6.324q.7,4.563,1.39,9.134c1.281.932,2.438,1.819,3.675,2.736l-2.372-.8,3.108,3.1c-.131,1.8-.262,3.646-.4,5.385.771,1.019,1.4,2.067,2.176,3.086C408.06,123.133,406.626,124.916,405.2,126.7Z" transform="translate(-346.425 -77.596)" fill="#3dbc41"/><g transform="translate(4.873 6.222)"><path d="M337.593,101.276l.847-.916,1.017-1.1.648-.7.781-.747,1.834-1.748,2.27-1.933c.811-.691,1.736-1.347,2.682-2.085.468-.376.98-.715,1.5-1.064l1.6-1.079c1.1-.721,2.291-1.4,3.507-2.142L356.2,86.75c.648-.346,1.31-.691,2-1a67.838,67.838,0,0,1,8.855-3.5,73.9,73.9,0,0,1,9.938-2.314,67.687,67.687,0,0,1,21.029,0,73.2,73.2,0,0,1,9.939,2.313,67.5,67.5,0,0,1,8.856,3.5c.692.306,1.353.652,2,1l1.915,1.014c1.217.739,2.407,1.421,3.508,2.143l1.6,1.08c.523.35,1.036.688,1.5,1.064.945.738,1.87,1.394,2.681,2.086l2.27,1.933,1.829,1.746.781.747.651.7,1.019,1.1.846.916-.958-.8c-.637-.508-1.513-1.314-2.728-2.218l-1.984-1.522-2.407-1.689c-1.74-1.17-3.747-2.415-5.985-3.675-1.12-.628-2.326-1.21-3.552-1.843l-1.914-.879c-.644-.3-1.3-.607-1.986-.869l-2.065-.835c-.7-.269-1.426-.5-2.149-.761-1.442-.532-2.957-.945-4.477-1.423a85.079,85.079,0,0,0-9.613-1.982,74.3,74.3,0,0,0-20.193,0,83.921,83.921,0,0,0-9.614,1.98c-1.52.479-3.037.889-4.478,1.421-.723.258-1.448.493-2.15.761l-2.064.835c-1.37.528-2.631,1.2-3.9,1.747-1.226.633-2.432,1.217-3.552,1.844-2.238,1.26-4.245,2.5-5.984,3.677l-2.407,1.69-1.98,1.52c-1.213.9-2.1,1.715-2.732,2.222Z" transform="translate(-337.593 -79.111)"/></g><g transform="translate(13.937)"><path d="M350.047,83.441l.694-.532.833-.64.531-.4.639-.434,1.5-1.016,1.857-1.123c.665-.4,1.422-.783,2.2-1.212.383-.218.8-.416,1.23-.619l1.311-.627c.9-.419,1.875-.816,2.87-1.244l1.568-.59c.531-.2,1.072-.4,1.638-.579a70.3,70.3,0,0,1,7.247-2.037,81.822,81.822,0,0,1,8.134-1.344c2.819-.29,5.709-.454,8.605-.478,2.9.022,5.787.187,8.606.477a80.963,80.963,0,0,1,8.134,1.343,70.087,70.087,0,0,1,7.248,2.036c.566.178,1.107.378,1.638.58l1.568.589c1,.429,1.969.826,2.87,1.245l1.311.627c.428.2.847.4,1.231.619.773.429,1.53.81,2.194,1.212l1.858,1.123,1.5,1.015.638.434.533.405.834.641.693.532-.785-.464c-.52-.3-1.237-.763-2.233-1.289L427.11,80.8l-1.969-.982c-1.424-.68-3.067-1.4-4.9-2.136-.916-.364-1.9-.7-2.907-1.071l-1.567-.511c-.527-.177-1.064-.353-1.625-.505l-1.69-.485c-.574-.156-1.167-.293-1.759-.442-1.18-.309-2.421-.549-3.664-.827-2.52-.485-5.163-.862-7.867-1.151-2.712-.259-5.487-.4-8.264-.4s-5.552.141-8.263.4c-2.706.285-5.348.665-7.868,1.151-1.244.278-2.485.516-3.665.826-.592.149-1.185.286-1.759.442l-1.69.485c-1.121.307-2.153.7-3.192,1.015-1,.368-1.99.707-2.907,1.072-1.831.732-3.474,1.456-4.9,2.136l-1.969.982-1.621.884c-.992.523-1.716,1-2.235,1.291Z" transform="translate(-350.047 -70.562)"/></g></svg>