<svg xmlns="http://www.w3.org/2000/svg" width="185.824" height="122.907" viewBox="0 0 185.824 122.907"><g transform="translate(-82.135 -403.143)" opacity="0.7"><path d="M257.165,480.657c-2.618-5.628-14.325-11.161-18.744-14.941s-5.332-8.448-9.112-11.292a5.4,5.4,0,0,0-3.151-1.173c-2.666-.083-5.309,1.766-8.129,2.607-3.91,1.185-8.543,7.583-8.543,7.583a87,87,0,0,1-10.178-11.434c-4.466-6.2-7.109-11.233-9.846-13.235s-10.5-9.728-11.244-11.671a3.7,3.7,0,0,0-3.223-1.99,2.14,2.14,0,0,0-2.228,1.3c-.876,2.3-4.964,8.507-7.962,10.119s-7.05,10.853-11.078,11.623a11.092,11.092,0,0,1-2.465.214c-2.512-.083-4.159-1.079-6.327-1.316-.249-.023-.462-.035-.664-.047-1.955-.059-1.161.924-1.848,3.2-.746,2.488-7.927,5.273-11.138,9.3s-7.322,3.282-9.929,5.012a2.8,2.8,0,0,1-1.611.522c-1.6-.048-2.489-1.873-2.489-1.873s-2.772,3.235-4.857,5.581-5.356,8.093-7.489,8.022-2.476,6.161-4.621,6.2-1.872,4.135-4.763,5.249a3.038,3.038,0,0,1-1.161.2c-1.339-.047-2.322-1.007-3.2-1.043-.545-.012-1.043.32-1.541,1.446a10.548,10.548,0,0,1-3.768,4.1h3.922a7.635,7.635,0,0,1,3.591.889,7.58,7.58,0,0,1,3.578-.889H104.6a7.725,7.725,0,0,1,1.967.273,7.651,7.651,0,0,1,1.967-.273h7.642a7.484,7.484,0,0,1,2.074.3,7.477,7.477,0,0,1,2.073-.3h7.643a7.629,7.629,0,0,1,3.448.818,7.654,7.654,0,0,1,3.448-.818h9.419a7.023,7.023,0,0,1,1.41.155,7.55,7.55,0,0,1,1.481-.155h7.655a7.886,7.886,0,0,1,1.978.273,7.743,7.743,0,0,1,1.979-.273h7.832a7.72,7.72,0,0,1,3.649.925,7.687,7.687,0,0,1,3.65-.925h7.227a7.687,7.687,0,0,1,5.332,2.157,20.833,20.833,0,0,1,20.5-.083,7.661,7.661,0,0,1,5.237-2.074h7.642a7.651,7.651,0,0,1,1.967.273,7.718,7.718,0,0,1,1.967-.273h27.335a7.725,7.725,0,0,1,4.23,1.268,7.72,7.72,0,0,1,4.23-1.268h4.68C261.573,488.619,258.5,483.536,257.165,480.657ZM120,484.769c-2.132.6-4.277,1.421-6.41,2.12l-.379-2.274-1.149,1.694c.166-1.375.3-2.761.486-4.123-1.576,2.322-3.46,5.438-5.036,7.772a25.928,25.928,0,0,0-3.65-.533l2.015-.6-4.479-.391c.225-.4.415-.782.569-1.1,2.654-.936,3.851-3.922,4.538-5.652.071-.166.154-.379.237-.58,2.689-.948,4.834-3.9,6.919-6.766.332-.45.664-.912.972-1.327-1.007,2.038-2.192,3.922-2.192,3.922s1.825-1.386,3.531-3.01c.711-.663,1.4-1.362,1.955-1.955a21.41,21.41,0,0,0,4.87,7.417C121.866,481.226,120.941,482.92,120,484.769Zm31.115-12.833-6.481,7.015,4.787-2.844c-1.636,2.3-4.136,4.076-6.1,6.055.083,1.41-.011,3.128.072,4.538-2.275.735-4.609,1.422-6.932,2.121l-4.514-5.593,1.386,4.728c-1.54-1.86-3.033-3.78-4.443-5.782-.356,1.054-1.28,2.085-1.635,3.14-.391-4.467-.806-8.8-1.185-13.271A42.275,42.275,0,0,0,121,469.555a7.116,7.116,0,0,0,2.571-1.078,9.471,9.471,0,0,1,2.1-.7,15.167,15.167,0,0,0,8.839-5.238A25.605,25.605,0,0,1,139.9,458.3a42.483,42.483,0,0,0,3.5-2.477,38.618,38.618,0,0,1-3.91,4.491,35.2,35.2,0,0,0,5.166-3.436,31.658,31.658,0,0,0,2.583-2.287c1.635,3.531,3.412,6.979,5.355,10.308C152.02,467.28,151.629,469.579,151.12,471.936Zm30.427,11.15,4.147-7.95-8.839,10.711c-1.161-1.031-2.334-2.062-3.507-3.069a38.727,38.727,0,0,1-4.668,2.82l.794-6.73-2.5,5.213c.617-3.779,1.126-7.63,1.825-11.374-1.066-.688-2.168-1.458-3.282-2.216l3.01,1.066-6.8-5.663c.3-1.481.6-2.974.876-4.408-2.227-1.327-4.478-2.69-6.718-4.052l5.332,1.493-7.773-5.309c.071-.26.154-.521.225-.77.261-.035.51-.059.771-.106,3.981-.759,6.895-4.858,9.478-8.484a25.783,25.783,0,0,1,2.832-3.59c2.394-1.315,4.858-4.171,6.766-6.908l2.595,14.195-.024-10.3q1.137,7.43,2.263,14.87c2.086,1.517,3.969,2.963,5.984,4.455l-3.863-1.3,5.06,5.048c-.214,2.926-.427,5.936-.652,8.768,1.256,1.658,2.287,3.365,3.543,5.023C186.2,477.28,183.87,480.183,181.547,483.086Zm12.512-15.178-.154-9.361-1.812,6.3c.083-2.773.142-5.521.272-8.33-1.742-3.175-3.519-6.493-5.249-9.668.083-.462.178-.948.273-1.422l3.424,3.365-.948-2.82c.64.912,1.327,1.943,2.05,3.021,1.161,1.766,2.488,3.756,4.028,5.889a90.6,90.6,0,0,0,10.5,11.849c.581,1.457,1.161,2.9,1.742,4.36C203.491,470.041,198.692,468.915,194.059,467.908Zm46.72,20.155-10.119,2.274-6.588.1c-.77-1.09-1.54-2.18-2.263-3.294-.983.925-2.6,2.2-3.566,3.128-.462-3.057-1.41-6.339-1.872-9.4-1.446,1.185-3.117,1.932-4.562,3.105.355-2.773.675-5.83,1.007-8.745,1.493-1.03,2.95-2.014,2.95-2.014l-.272-6.363,1.362,5.344.462-10.723a5.954,5.954,0,0,1,1.837-1.137,30.973,30.973,0,0,0,3.4-1.316,19.547,19.547,0,0,1,2.263-.888c-.19,3.874-.368,7.749-.557,11.623,1.848.273,3.7.7,5.557,1.055l3.543,6.706-.391-4.005c1.173,2.37,2.417,4.716,3.542,7.1,3.188,1.3,6.458,2.749,9.681,4.123l-17.205,4.6Z" fill="#fff"/><path d="M82.135,500.628h7.65v8.625H96.95v-8.625h7.65v24.831H96.95v-9.842H89.785v9.842h-7.65Z" fill="#fff"/><path d="M108.532,500.628h7.651v24.831h-7.651Z" fill="#fff"/><path d="M120.322,500.628h7.651v8.555h.069l6.817-8.555h9.424l-9.007,9.7,10.468,15.128h-9.529l-6.121-9.668-2.121,2.33v7.338h-7.651Z" fill="#fff"/><path d="M147.172,500.628h7.651v24.831h-7.651Z" fill="#fff"/><path d="M158.788,500.628h7.825l7.233,13.285h.07V500.628h7.234v24.831h-7.442L166.091,511.9h-.069v13.563h-7.234Z" fill="#fff"/><path d="M203.339,522.92a8.7,8.7,0,0,1-7.06,3.13c-7.338,0-11.859-5.7-11.859-12.763,0-9.46,6.643-13.25,12.242-13.25,6.329,0,10.328,3.443,11.441,9.285h-7.338a3.633,3.633,0,0,0-3.617-3.1c-5.251,0-5.077,5.529-5.077,7.234,0,2.33.939,6.4,5.6,6.4a3.794,3.794,0,0,0,3.965-2.748h-3.373v-5.32h10.154v13.667h-4.834Z" fill="#fff"/><path d="M212.209,500.628h7.651v24.831h-7.651Z" fill="#fff"/><path d="M223.791,500.628h19.2v6.364H231.442v3.1h9.911V516h-9.911v9.459h-7.651Z" fill="#fff"/><path d="M251.4,516.313l-8.729-15.685h8.451l4.138,9.147,4.313-9.147h8.381l-8.9,15.685v9.146H251.4Z" fill="#fff"/><path d="M93.791,449.359l1.379-1.492,1.657-1.792,1.055-1.132,1.271-1.216,2.985-2.846,3.7-3.147c1.322-1.125,2.828-2.194,4.366-3.394.762-.612,1.6-1.164,2.447-1.733l2.608-1.757c1.792-1.174,3.73-2.285,5.71-3.487l3.119-1.652c1.055-.564,2.132-1.127,3.258-1.625a110.253,110.253,0,0,1,14.417-5.706,120.063,120.063,0,0,1,16.181-3.768,130.348,130.348,0,0,1,17.118-1.34,129.493,129.493,0,0,1,17.118,1.337,119.3,119.3,0,0,1,16.183,3.765,109.935,109.935,0,0,1,14.418,5.706c1.126.5,2.2,1.061,3.258,1.625l3.119,1.651c1.98,1.2,3.919,2.314,5.71,3.489l2.608,1.757c.851.57,1.685,1.12,2.447,1.733,1.539,1.2,3.044,2.269,4.366,3.4l3.695,3.148,2.978,2.842,1.271,1.215,1.059,1.136,1.659,1.8,1.378,1.492-1.561-1.3c-1.036-.828-2.462-2.139-4.441-3.611l-3.23-2.478q-1.816-1.275-3.919-2.75c-2.833-1.906-6.1-3.933-9.744-5.985-1.824-1.021-3.787-1.97-5.783-3l-3.116-1.431c-1.05-.495-2.118-.988-3.234-1.415l-3.361-1.359c-1.142-.437-2.322-.819-3.5-1.238-2.346-.867-4.814-1.54-7.289-2.317a138.52,138.52,0,0,0-15.651-3.227,120.975,120.975,0,0,0-32.876,0,136.7,136.7,0,0,0-15.652,3.224c-2.475.78-4.945,1.446-7.291,2.314-1.178.42-2.357.8-3.5,1.239l-3.361,1.36c-2.229.861-4.283,1.952-6.35,2.846-2,1.031-3.96,1.98-5.783,3-3.644,2.052-6.912,4.079-9.744,5.986l-3.918,2.751L99.8,444.439c-1.974,1.467-3.415,2.793-4.448,3.618Z" fill="#fff"/><path d="M108.548,424.111l1.128-.867,1.356-1.041.864-.658,1.04-.706,2.443-1.654,3.025-1.829c1.082-.654,2.314-1.274,3.573-1.972.624-.356,1.306-.676,2-1.007l2.134-1.021c1.467-.682,3.053-1.328,4.674-2.026l2.552-.96c.863-.327,1.745-.655,2.666-.944a114.452,114.452,0,0,1,11.8-3.315,133.173,133.173,0,0,1,13.242-2.19c4.59-.472,9.295-.739,14.01-.778,4.715.036,9.42.3,14.01.777a132.069,132.069,0,0,1,13.244,2.187,114.2,114.2,0,0,1,11.8,3.316c.922.289,1.8.616,2.666.944l2.553.959c1.621.7,3.207,1.345,4.674,2.027l2.134,1.021c.7.332,1.379.651,2,1.007,1.259.7,2.491,1.319,3.573,1.973l3.024,1.829,2.437,1.651,1.04.706.866.661,1.359,1.043,1.127.867-1.277-.757c-.848-.48-2.016-1.243-3.635-2.1l-2.644-1.44-3.207-1.6c-2.319-1.108-4.992-2.286-7.974-3.478-1.493-.593-3.1-1.145-4.734-1.744l-2.55-.831c-.859-.288-1.733-.574-2.647-.822l-2.75-.79c-.935-.254-1.9-.476-2.864-.72-1.921-.5-3.94-.894-5.966-1.346-4.1-.791-8.405-1.4-12.809-1.875-4.414-.422-8.932-.643-13.453-.652-4.522.006-9.04.23-13.454.651-4.4.465-8.706,1.083-12.809,1.873-2.025.453-4.047.841-5.967,1.345-.964.244-1.929.466-2.864.72l-2.751.79c-1.824.5-3.505,1.134-5.2,1.653-1.634.6-3.241,1.151-4.733,1.745-2.982,1.193-5.657,2.37-7.974,3.478l-3.207,1.6-2.638,1.438c-1.616.853-2.795,1.623-3.64,2.1Z" fill="#fff"/></g></svg>