<svg xmlns="http://www.w3.org/2000/svg" fill="#000" width="36.002" height="33.754" viewBox="0 0 36.002 33.754">
<path d="M6.449,33.413a1.194,1.194,0,0,0,1.679,1.334l9.877-5.076,9.875,5.076a1.194,1.194,0,0,0,1.679-1.332L27.692,22.772l7.927-7.551a1.251,1.251,0,0,0-.637-2.137l-11.02-1.566L19.046,1.782a1.154,1.154,0,0,0-2.086,0L12.046,11.52,1.026,13.086a1.251,1.251,0,0,0-.637,2.137l7.927,7.551L6.449,33.417Zm11.036-6.226L9.192,31.448l1.561-8.9a1.271,1.271,0,0,0-.367-1.136L3.848,15.176l9.117-1.3a1.181,1.181,0,0,0,.884-.648L18.005,5l4.154,8.23a1.181,1.181,0,0,0,.884.648l9.117,1.294-6.538,6.232a1.269,1.269,0,0,0-.367,1.139l1.561,8.9-8.293-4.261a1.132,1.132,0,0,0-1.037,0Z" transform="translate(-0.003 -1.122)" fill="#000"/>
</svg>
