<svg xmlns="http://www.w3.org/2000/svg" xmlns:xlink="http://www.w3.org/1999/xlink" width="15" height="15" viewBox="0 0 15 15">
<defs>
<clipPath id="a"><rect width="15" height="15" transform="translate(0.5)" fill="#fff" stroke="#707070" stroke-width="1"/>
</clipPath>
<clipPath id="b">
<path d="M8.1.486,6.313,4.1,2.32,4.687A.875.875,0,0,0,1.837,6.18L4.725,8.995l-.683,3.977a.874.874,0,0,0,1.268.921l3.572-1.878,3.572,1.878a.875.875,0,0,0,1.268-.921l-.683-3.977,2.889-2.815a.875.875,0,0,0-.484-1.492L11.451,4.1,9.667.486A.875.875,0,0,0,8.1.486Z" transform="translate(-1.571 0)" fill="#fff"/>
</clipPath>
</defs>
<g transform="translate(-0.5)" clip-path="url(#a)">
<g transform="translate(0 0.691)" clip-path="url(#b)"><path d="M13.873,4.679,9.881,4.1,8.1.486a.876.876,0,0,0-1.569,0L4.742,4.1.749,4.678A.873.873,0,0,0,.265,6.167l2.889,2.81L2.47,12.946a.875.875,0,0,0,.862,1.022.864.864,0,0,0,.406-.1L7.31,11.992l3.572,1.874a.873.873,0,0,0,1.268-.919l-.683-3.969,2.889-2.81a.873.873,0,0,0-.484-1.489ZM10.552,8.04l-.494.481.117.679.532,3.1L7.921,10.832l-.61-.32V1.859L8.7,4.676l.305.617.682.1,3.116.454L10.552,8.039Z" transform="translate(0 0.014)" fill="#000"/>
</g>
</g>
</svg>
