<?xml version="1.0" encoding="utf-8"?>
<!-- Generator: Adobe Illustrator 22.0.1, SVG Export Plug-In . SVG Version: 6.00 Build 0)  -->
<svg version="1.1" id="Capa_1" xmlns="http://www.w3.org/2000/svg" xmlns:xlink="http://www.w3.org/1999/xlink" x="0px" y="0px"
	 viewBox="0 0 985.3 985.3" style="enable-background:new 0 0 985.3 985.3;" xml:space="preserve">
<style type="text/css">
	.st0{fill:#FFFFFF;}
</style>
<g>
	<path class="st0" d="M868.6,492.8c-4.4,22.1-24,38.2-47.5,39.2c-7.4,0.3-13.7,5.7-15.1,13c-1.5,7.3,2.2,14.7,8.9,17.8
		c21.3,10,33.2,32.4,28.7,54.5l-4.2,21c-5.5,27.7-36.1,45-62.9,38.4c-7.5-1.8-15.2-3.2-22.8-4.7c-11.2-2.2-22.4-4.5-33.6-6.7
		c-14.8-3-29.6-5.9-44.4-8.9c-17.6-3.5-35.3-7.1-52.9-10.6c-19.7-4-39.4-7.9-59.1-11.9c-21-4.2-42.1-8.4-63.1-12.7
		c-21.6-4.3-43.2-8.7-64.7-13c-21.4-4.3-42.7-8.6-64.1-12.9c-20.4-4.1-40.8-8.2-61.2-12.3c-18.7-3.7-37.3-7.5-56-11.2
		c-16.2-3.2-32.4-6.5-48.5-9.7c-12.9-2.6-25.8-5.2-38.8-7.8c-8.9-1.8-17.8-3.6-26.7-5.4c-4.1-0.8-8.2-1.7-12.3-2.5
		c-0.2,0-0.4-0.1-0.6-0.1c2.2,10.4,1.2,21.5-3.6,31.9C114,600,90.5,611.4,67.9,607c-6.7-1.3-14,1.2-16.9,7.4l-9,19.5
		c-2.9,6.2,0,13.4,5.3,17.7c1,0.8,721.8,333.1,723,333.4c6.7,1.3,14-1.2,16.9-7.4l9-19.5c2.9-6.2,0-13.4-5.3-17.7
		c-18-14.3-24.6-39.6-14.5-61.4c10.1-21.8,33.6-33.2,56.2-28.8c6.7,1.3,14-1.2,16.9-7.4l9-19.5c2.9-6.2,0-13.4-5.3-17.7
		c-18-14.3-24.6-39.6-14.5-61.4s33.6-33.2,56.2-28.8c6.7,1.3,14-1.2,16.9-7.4l9-19.5c2.9-6.2,0-13.4-5.3-17.7
		c-18-14.3-24.6-39.6-14.5-61.4c10.1-21.8,33.6-33.2,56.2-28.8c6.7,1.3,14-1.2,16.9-7.4l9.9-21.6c2.9-6.2,0.2-13.5-6-16.4
		l-107.7-49.7L868.6,492.8z"/>
	<path class="st0" d="M9.7,485.9c1.2,0.6,779.3,156.7,780.6,156.7c6.8-0.3,13.4-4.5,14.7-11.1l4.2-21c1.3-6.7-3.1-13.1-9.3-16
		c-20.8-9.8-33.1-32.8-28.4-56.4c4.7-23.6,25-40.1,48-41.1c6.8-0.3,13.4-4.5,14.7-11.1l3.1-15.4l1.1-5.7c1.3-6.7-3.1-13.1-9.3-16
		c-20.8-9.8-33.1-32.8-28.4-56.4c4.7-23.6,25-40.1,48-41.1c6.8-0.3,13.4-4.5,14.7-11.1l4.2-21c1.3-6.7-3.1-13.1-9.3-16
		c-20.8-9.8-33.1-32.8-28.4-56.4c4.7-23.6,25-40.1,48-41.1c6.8-0.3,13.4-4.5,14.7-11.1l4.7-23.3c1.3-6.7-3-13.2-9.7-14.5
		c0,0-781.9-156.8-782.7-156.8C99.1,0,94,4.1,92.8,9.9l-4.7,23.3c-1.3,6.7,3.1,13.1,9.3,16c20.8,9.8,33.1,32.8,28.4,56.4
		s-25,40.1-48,41.1c-6.8,0.3-13.4,4.5-14.7,11.1l-4.2,21c-1.3,6.7,3.1,13.1,9.3,16c20.8,9.8,33.1,32.8,28.4,56.4
		c-4.7,23.6-25,40.1-48,41.1c-6.8,0.3-13.4,4.5-14.7,11.1l-4.2,21c-1.3,6.7,3.1,13.1,9.3,16c20.8,9.8,33.1,32.8,28.4,56.4
		c-4.7,23.6-25,40.1-48,41.1C12.6,438.2,6,442.4,4.7,449l-4.2,21C-0.9,476.7,3.5,483,9.7,485.9z M676.2,229.6
		c2.7-13.5,15.9-22.3,29.4-19.6s22.3,15.9,19.6,29.4l-33,164.2l-20.3,101.2c-2.4,11.9-12.8,20.1-24.5,20.1c-1.6,0-3.3-0.2-4.9-0.5
		c-13.5-2.7-22.3-15.9-19.6-29.4l22.7-112.9L676.2,229.6z M225.4,139.1c2.7-13.5,15.9-22.3,29.4-19.6c13.5,2.7,22.3,15.9,19.6,29.4
		L263,205.6l-12.9,64.3l-10.4,51.8l-18.5,92.6c-2.4,11.9-12.8,20.1-24.5,20.1c-1.6,0-3.3-0.2-4.9-0.5c-0.7-0.1-1.4-0.3-2-0.5
		c-12.4-3.6-20.1-16.1-17.5-28.9l3.7-18.7l9.7-48.4L225.4,139.1z"/>
</g>
</svg>
